<?xml version="1.0" encoding="UTF-8"?>
<svg width="42px" height="34px" viewBox="0 0 42 34" version="1.1" xmlns="http://www.w3.org/2000/svg" xmlns:xlink="http://www.w3.org/1999/xlink">
    <!-- Generator: Sketch 54.1 (76490) - https://sketchapp.com -->
    <title>jiedaigonglve</title>
    <desc>Created with Sketch.</desc>
    <g id="页面1" stroke="none" stroke-width="1" fill="none" fill-rule="evenodd">
        <g id="画板复制-3" transform="translate(-803.000000, -5013.000000)" fill="#FFFFFF" fill-rule="nonzero">
            <g id="jiedaigonglve" transform="translate(803.000000, 5013.000000)">
                <path d="M0.893617021,19.5402219 C1.37182658,19.0783506 1.82058347,18.5837714 2.29922545,18.1224868 C3.57068728,16.8972348 4.97158712,15.8554699 6.58038536,15.1306151 C7.38502471,14.7678454 8.21709878,14.4841811 9.10149578,14.3977911 C9.51599531,14.3572117 9.9356839,14.2838755 10.3496549,14.300205 C11.6120649,14.349285 12.8577469,14.6109757 14.0360438,15.0746351 C15.1701879,15.5191013 16.1628824,16.1965809 17.0975843,16.9774646 C17.8913171,17.6395925 18.6933619,18.2954135 19.521304,18.9101663 C20.05347,19.3055461 20.6808168,19.5102518 21.3429494,19.5629072 C22.108767,19.6235318 22.8775634,19.655653 23.6428525,19.726838 C24.4200571,19.7990497 25.1971657,19.8443715 25.9490016,20.0878965 C26.7656046,20.3516134 27.2349736,20.9129774 27.399726,21.7839668 C27.8183575,21.6727403 28.2344907,21.5766699 28.6431285,21.4513139 C29.7924074,21.0980779 30.9384671,20.727388 31.9839649,20.1138086 C32.499669,19.8010579 32.99594,19.456262 33.4699556,19.0813818 C34.4393474,18.3370196 35.4703831,17.7254447 36.6822189,17.5139921 C37.7584667,17.3263981 38.7598095,17.5526158 39.6551612,18.1957741 C40.3566441,18.6992514 40.8851587,19.3693486 41.3027332,20.1223156 C41.5529767,20.5903364 41.780026,21.0708177 41.9830275,21.5619537 C42.0177105,21.6779584 41.9986506,21.8037182 41.9312331,21.9037003 C41.5027519,22.4309386 41.0504396,22.9407228 40.6179225,23.4663477 C39.4303984,24.9115105 38.1308773,26.2500425 36.7968585,27.548044 C36.0335874,28.2892283 35.2005044,28.9558053 34.3911565,29.6462899 C33.5653285,30.3512462 32.6637788,30.9438514 31.7389744,31.5063888 C30.4861067,32.2666406 29.1607844,32.8370494 27.7402335,33.1518083 C27.1956713,33.2731552 26.6252119,33.2903159 26.0650826,33.3198948 C25.3439005,33.3573941 24.6211809,33.3583719 23.8994703,33.3779282 C23.3155098,33.3938177 22.7315973,33.4132762 22.1482134,33.4307302 C21.4865612,33.4491132 20.8250052,33.4649049 20.163353,33.4833856 C19.5971218,33.4991773 19.0306983,33.5191248 18.4639386,33.536041 C17.7851818,33.5556951 17.106521,33.5704112 16.4277162,33.5887453 C15.930336,33.6035103 15.4329558,33.6267334 14.935047,33.6415473 C14.1791271,33.6614948 13.4221982,33.6757709 12.6657017,33.694056 C12.0647326,33.7093588 11.4637155,33.729453 10.8626984,33.746907 L8.9327555,33.7991223 C8.34000243,33.8160874 7.74782592,33.8349104 7.15560136,33.8519244 C6.50283786,33.8702584 5.84983413,33.8882013 5.19663822,33.9045798 C4.46613504,33.9229627 3.73553576,33.9461369 3.00498454,33.9573818 C2.4049764,33.9645688 1.8454717,33.3746036 1.83456508,32.758873 C1.82937603,32.4335048 1.84335764,32.121435 2.02992327,31.836695 C2.29778404,31.4282125 2.6904223,31.2415963 3.14691471,31.2236045 C4.09247526,31.1867409 5.03962135,31.1841497 5.98561432,31.1645933 C6.7250542,31.1494372 7.46439799,31.1318365 8.20364568,31.111938 C8.80471084,31.0960974 9.40567992,31.0764921 10.006697,31.0591359 L11.9392345,31.0064316 L13.7422858,30.9537274 L15.6748232,30.9011698 C16.2675763,30.8841558 16.8597528,30.8652351 17.4525059,30.8483188 C18.1052694,30.829887 18.758129,30.8135575 19.4109886,30.7956635 C20.003117,30.7793339 20.595822,30.7603643 21.1879986,30.7428614 C21.8584913,30.7245274 22.5284075,30.7086868 23.1983718,30.6901571 C23.7650835,30.6744143 24.3317952,30.6627783 24.8982667,30.6375018 C26.060374,30.5847975 27.225124,30.5642145 28.3338994,30.1161793 C29.5643793,29.6263783 30.7261248,28.9738474 31.7891833,28.1754106 C32.5305931,27.6139488 33.2776724,27.0519492 33.9652698,26.4250226 C34.9195749,25.5557444 35.8305418,24.6383088 36.7387219,23.7162285 C37.2858786,23.1532022 37.791619,22.5479831 38.3095632,21.958018 C38.4908437,21.7528723 38.6572777,21.5362372 38.8624375,21.281614 C38.6287379,21.0243017 38.4252118,20.7396596 38.1650866,20.5255668 C37.6588657,20.1080395 37.1013309,20.1333649 36.520061,20.3947351 C35.938647,20.6563008 35.4268047,21.0405824 34.933076,21.4460337 C34.1670555,22.0868457 33.311416,22.6078504 32.3943805,22.9918626 C31.63577,23.3029058 30.8793696,23.6245094 30.1006274,23.8769814 C29.1535294,24.1817666 28.1837052,24.4111622 27.2255084,24.6836794 C27.1179239,24.7165633 27.0265326,24.7896159 26.9696593,24.8881896 C26.3996323,26.0776047 25.4749241,26.874769 24.3049851,27.405674 C23.406818,27.8079672 22.4522964,28.0647045 21.476087,28.1665614 C20.4331357,28.2828725 19.4217991,28.1231463 18.410943,27.9170717 C16.7322367,27.574445 15.1468372,26.9438516 13.5661463,26.2933108 C12.9236648,26.0298873 12.3045341,25.7080881 11.6734877,25.4160145 C10.9693142,25.0890818 10.6796882,24.1423606 11.1320006,23.4124701 C11.4718354,22.8647466 12.2625412,22.6639032 12.9282773,22.9559279 C14.2991479,23.5564045 15.6773697,24.1460274 17.0788461,24.6662254 C17.8985241,24.9704728 18.7606754,25.1723917 19.6176377,25.3516743 C20.9128827,25.619938 22.178675,25.4154278 23.3526499,24.8186669 C24.285334,24.344084 24.6869089,23.6639643 24.7302952,22.6243017 C24.4521524,22.5885136 24.17031,22.5395739 23.886834,22.518942 C22.5641063,22.4229694 21.2299914,22.4466814 19.9315754,22.0971612 C18.9663156,21.8382845 18.1077678,21.3706441 17.3301307,20.7490466 C16.5083867,20.09215 15.7053329,19.412128 14.890844,18.7456488 C13.9432655,17.970632 12.8593302,17.5024539 11.6755057,17.2393725 C10.3356253,16.9415298 9.04552128,17.0611656 7.78962661,17.6121159 C6.82338245,18.0343777 5.92621486,18.6043887 5.12918054,19.3024171 C4.63160813,19.7292826 3.88462491,20.4697824 3.28519333,21.554229 L0.893617021,19.5402219 L0.893617021,19.5402219 Z" id="路径"></path>
                <path d="M1.56892411,19.1804636 C2.43542907,19.1804636 3.13784822,19.887833 3.13784822,20.7604446 C3.13784822,21.6330561 2.43542907,22.3404255 1.56892411,22.3404255 C0.702419154,22.3404255 0,21.6330561 0,20.7604446 C0,19.887833 0.702419154,19.1804636 1.56892411,19.1804636 L1.56892411,19.1804636 Z M34.616321,0 C36.2265892,0 37.5319149,1.31452491 37.5319149,2.93614133 L37.5319149,6.59428463 C37.5319149,7.2317161 37.3302131,7.82168798 36.9875592,8.30302262 C37.3328708,8.78753871 37.5226779,9.36686861 37.5314847,9.96319394 L37.5319149,10.0117606 L37.5319149,13.6699039 C37.5319149,15.2752512 36.2525427,16.5797162 34.6645478,16.6056602 L34.616321,16.6060452 L19.078404,16.6060452 C18.3920445,16.6060452 17.8356918,16.0457717 17.8356918,15.3545752 C17.8356918,14.6703098 18.3810035,14.1143202 19.0578514,14.1032495 L19.078404,14.1031051 L34.616321,14.1031051 C34.8489631,14.1031025 35.0394494,13.9168393 35.0462994,13.6826593 L35.0464906,13.6699039 L35.0464906,10.0117606 C35.046488,9.77747898 34.8615283,9.58565026 34.6289871,9.57875196 L34.616321,9.57855943 L10.2878405,9.57855943 C10.0551984,9.57856197 9.86471208,9.76482519 9.85786206,9.99900524 L9.85767087,10.0117606 L9.85767087,12.0453995 C9.85767087,12.736596 9.3013182,13.2968696 8.61495871,13.2968696 C7.93548193,13.2968696 7.38338315,12.7477149 7.37224654,12.0660969 L7.37224654,10.0117606 C7.37224654,9.37432914 7.57394828,8.78435727 7.91665006,8.30297449 C7.57394828,7.82168798 7.37224654,7.2317161 7.37224654,6.59428463 L7.37224654,2.93614133 C7.37224654,1.31452491 8.67757228,0 10.2878405,0 L34.616321,0 Z M34.616321,2.50294015 L10.2878405,2.50294015 C10.0502644,2.50294015 9.85767087,2.69689093 9.85767087,2.93614133 L9.85767087,6.59428463 C9.85767087,6.83353504 10.0502644,7.02748581 10.2878405,7.02748581 L34.616321,7.02748581 C34.8538971,7.02748581 35.0464906,6.83353504 35.0464906,6.59428463 L35.0464906,2.93614133 C35.0464906,2.69689093 34.8538971,2.50294015 34.616321,2.50294015 L34.616321,2.50294015 Z" id="形状"></path>
            </g>
        </g>
    </g>
</svg>