<?xml version="1.0" encoding="UTF-8"?>
<svg width="38px" height="38px" viewBox="0 0 38 38" version="1.1" xmlns="http://www.w3.org/2000/svg" xmlns:xlink="http://www.w3.org/1999/xlink">
    <!-- Generator: Sketch 54.1 (76490) - https://sketchapp.com -->
    <title>jinbi-copy</title>
    <desc>Created with Sketch.</desc>
    <g id="页面1" stroke="none" stroke-width="1" fill="none" fill-rule="evenodd">
        <g id="画板复制-3" transform="translate(-806.000000, -4778.000000)" fill="#FFFFFF" fill-rule="nonzero">
            <g id="jinbi-copy" transform="translate(806.000000, 4778.000000)">
                <path d="M19,17.9444444 C28.2122962,17.9444444 38,14.8033414 38,8.97222222 C38,3.14110303 28.2122962,0 19,0 C9.78770384,0 0,3.14110303 0,8.97222222 C0,14.8033414 9.78770384,17.9444444 19,17.9444444 L19,17.9444444 Z M19,3.58668822 C28.4891216,3.58668822 34.5474107,6.77294454 34.5474107,8.97227179 C34.5474107,11.171599 28.4891216,14.352205 19,14.352205 C9.51087835,14.352205 3.45258926,11.1659487 3.45258926,8.97227179 C3.45258926,6.7785949 9.51087835,3.58668822 19,3.58668822 Z" id="形状"></path>
                <path d="M3.44300429,16.2474142 C2.67204506,15.7092914 1.59169054,15.8748711 1.03249817,16.6096342 C0.326719997,17.5306688 -0.0207532404,18.5137332 0.000957872376,19.5279036 C0.0443800979,22.0063248 2.2703179,24.1640006 6.25528528,25.6076051 C9.5507459,26.8028627 13.8234452,27.4444444 18.3567732,27.4444444 C18.6173543,27.4444444 18.8834228,27.4392601 19.1493959,27.4392601 C28.3625901,27.284049 38.0969941,24.2363991 37.9992702,18.896645 C37.9884386,18.1204984 37.7604003,17.365089 37.3152032,16.6458789 C36.8320236,15.8594092 35.762453,15.6006936 34.953559,16.0611882 C34.1283459,16.5216827 33.8514457,17.5306688 34.340065,18.3171385 C34.4758191,18.5396548 34.5409524,18.7414338 34.5463444,18.9483972 C34.5843747,20.9611395 28.5797489,23.9829133 19.0897022,24.1484931 C14.6704172,24.2002453 10.5714545,23.6465695 7.48771302,22.5289402 C5.05544807,21.6493346 3.47559481,20.4488927 3.45932341,19.4657828 C3.4538837,19.1863755 3.57875839,18.8759077 3.82306805,18.5499325 C4.38226043,17.8100306 4.21396351,16.7803528 3.44300429,16.2474142 L3.44300429,16.2474142 Z" id="路径"></path>
                <path d="M34.7102521,26.6704039 C33.9230982,27.1778453 33.7059605,28.2031044 34.2433894,28.9591238 C34.4496487,29.2490708 34.547363,29.5131679 34.547363,29.7617004 C34.547363,31.7759469 28.4890739,34.7067736 18.9999523,34.7067736 C9.51083064,34.7067736 3.45254155,31.7759924 3.45254155,29.7617004 C3.45254155,29.5183561 3.54481671,29.2645899 3.72941475,28.9953501 C4.2505738,28.2341881 4.03338841,27.2141171 3.23540387,26.7118184 C2.43741933,26.2147079 1.36800076,26.4270141 0.841402534,27.1830335 C0.282264666,27.9959864 0,28.8607303 0,29.7565122 C0,35.1158215 9.78770384,38 19,38 C28.2122962,38 38,35.1158215 38,29.7616549 C38,28.8451202 37.7014178,27.9544809 37.1097403,27.1156325 C36.5777506,26.3596586 35.5028929,26.1628715 34.7102998,26.6703129 L34.7102521,26.6704039 Z" id="路径"></path>
            </g>
        </g>
    </g>
</svg>