<?xml version="1.0" encoding="UTF-8"?>
<svg width="42px" height="39px" viewBox="0 0 42 39" version="1.1" xmlns="http://www.w3.org/2000/svg" xmlns:xlink="http://www.w3.org/1999/xlink">
    <!-- Generator: Sketch 54.1 (76490) - https://sketchapp.com -->
    <title>jiaoyisuo</title>
    <desc>Created with Sketch.</desc>
    <g id="page1" stroke="none" stroke-width="1" fill="none" fill-rule="evenodd">
        <g id="drawingcopy-3" transform="translate(-803.000000, -5237.000000)" fill="#FFFFFF" fill-rule="nonzero">
            <g id="jiaoyisuo" transform="translate(803.000000, 5237.000000)">
                <path d="M41.8133588,15.8075952 C41.6198419,16.0783716 41.3110384,16.2260677 40.9981175,16.2260677 C40.7963658,16.2260677 40.5946142,16.1645277 40.4175668,16.0414475 L21,2.21954555 L7.71733026,11.6762045 L7.71733026,37.0061014 L34.2867871,37.0061014 L34.2867871,18.0435514 C34.2867871,17.4937934 34.7355816,17.0466021 35.2873106,17.0466021 C35.8390396,17.0466021 36.2878341,17.4937934 36.2878341,18.0435514 L36.2878341,38.0030507 C36.2878341,38.5528088 35.8390396,39 35.2873106,39 L6.71680678,39 C6.16507778,39 5.7162833,38.5528088 5.7162833,38.0030507 L5.7162833,13.0998317 L1.5824332,16.0414475 C1.13363872,16.3614559 0.507796871,16.2588891 0.186641186,15.8075952 C-0.134514499,15.360404 -0.031579985,14.7367978 0.421331878,14.4167894 L20.4194493,0.18462024 C20.7653093,-0.0615400799 21.2346907,-0.0615400799 21.5805507,0.18462024 L41.5786681,14.4167894 C42.03158,14.7409005 42.1345145,15.360404 41.8133588,15.8075952 Z M29.7627124,11.358222 C29.4075662,10.9290031 28.7789166,10.8785068 28.3666205,11.2446052 L22.3454638,16.5467199 L19.1981338,12.8646958 C18.8715626,12.4817653 18.3163915,12.4060208 17.9040954,12.6879587 L11.4420675,17.1274277 C10.9848679,17.4388218 10.8624036,18.0742339 11.1685642,18.545533 C11.3604247,18.840095 11.6747495,19 11.9931565,19 C12.1809349,19 12.3727955,18.9452956 12.5401632,18.8274709 L18.2796522,14.884549 L21.5004608,18.6549417 C21.8596891,19.0715365 22.4760923,19.1178248 22.8883884,18.7559344 L29.6524946,12.7973674 C30.0688729,12.431269 30.1178586,11.7874408 29.7627124,11.358222 L29.7627124,11.358222 Z M14,23.026038 L14,32.973962 C14,33.5397607 14.4485597,34 15,34 C15.5514403,34 16,33.5397607 16,32.973962 L16,23.026038 C16,22.4602393 15.5514403,22 15,22 C14.4485597,22 14,22.4602393 14,23.026038 Z M20,23.026038 L20,32.973962 C20,33.5397607 20.4485597,34 21,34 C21.5514403,34 22,33.5397607 22,32.973962 L22,23.026038 C22,22.4602393 21.5514403,22 21,22 C20.4485597,22 20,22.4602393 20,23.026038 Z M27,21.9905927 L27,33.0094073 C27,33.5556601 27.4485597,34 28,34 C28.5514403,34 29,33.5556601 29,33.0094073 L29,21.9905927 C29,21.4443399 28.5514403,21 28,21 C27.4485597,21 27,21.4443399 27,21.9905927 Z" id="form"></path>
            </g>
        </g>
    </g>
</svg>