<?xml version="1.0" encoding="UTF-8"?>
<svg width="39px" height="33px" viewBox="0 0 39 33" version="1.1" xmlns="http://www.w3.org/2000/svg" xmlns:xlink="http://www.w3.org/1999/xlink">
    <!-- Generator: Sketch 54.1 (76490) - https://sketchapp.com -->
    <title>zhifu</title>
    <desc>Created with Sketch.</desc>
    <g id="页面1" stroke="none" stroke-width="1" fill="none" fill-rule="evenodd">
        <g id="画板复制-3" transform="translate(-805.000000, -4561.000000)" fill="#FFFFFF" fill-rule="nonzero">
            <g id="zhifu" transform="translate(805.000000, 4561.000000)">
                <path d="M21.6371471,29.7359223 L3.46614493,29.7359223 C3.19305472,29.7359223 2.96197839,29.5244293 2.96197839,29.2494883 L2.96197839,21.656888 L11.5748234,21.656888 C14.5998226,21.656888 17.0576344,19.1824193 17.0576344,16.1369194 C17.0576344,13.0914196 14.5998226,10.6169509 11.5748234,10.6169509 L2.96197839,10.6169509 L2.96197839,3.44733666 C2.96197839,3.1723957 3.19305472,2.96090265 3.46614493,2.96090265 L32.3716929,2.96090265 C32.6447831,2.96090265 32.8758594,3.1723957 32.8758594,3.44733666 L32.8758594,16.2849646 C32.8758594,17.1097875 33.5270746,17.7654159 34.3463452,17.7654159 L34.3673521,17.7654159 C35.1866227,17.7654159 35.8378378,17.1097875 35.8378378,16.2849646 L35.8378378,2.87630543 C35.8378378,1.29010758 34.5354076,0 32.9388803,0 L2.89895757,0 C1.30243021,0 0,1.29010758 0,2.87630543 L0,29.7993702 C0,31.3855681 1.30243021,32.6756757 2.89895757,32.6756757 L21.6371471,32.6756757 C22.4564177,32.6756757 23.1076328,32.0200472 23.1076328,31.1952244 C23.1076328,30.3704015 22.4564177,29.7359223 21.6371471,29.7359223 L21.6371471,29.7359223 Z M3.08802002,18.5479402 L3.08802002,13.7258987 L11.5538164,13.7258987 C12.8772536,13.7258987 13.9486075,14.8045133 13.9486075,16.1369194 C13.9486075,17.4693256 12.8772536,18.5479402 11.5538164,18.5479402 L3.08802002,18.5479402 Z" id="形状"></path>
                <path d="M10.9994686,14.7567568 C10.1704373,14.7567568 9.48648649,15.4594595 9.48648649,16.3112203 C9.48648649,17.1629812 10.1704373,17.8656839 10.9994686,17.8656839 C11.8284998,17.8656839 12.5124507,17.1629812 12.5124507,16.3112203 C12.5124507,15.4594595 11.8284998,14.7567568 10.9994686,14.7567568 Z M38.523307,19.8460278 C38.2331461,19.5479115 37.860082,19.3988534 37.4662921,19.3775594 C37.0517765,19.3775594 36.6787124,19.5479115 36.3885515,19.8460278 L28.5749317,27.8738739 L25.1759034,24.3816544 C24.8857425,24.0835381 24.4919526,23.9131859 24.0981628,23.9131859 C23.6836471,23.9131859 23.3105831,24.0835381 23.0411479,24.3816544 C22.7509869,24.6797707 22.5851807,25.0843571 22.5851807,25.4889435 C22.5851807,25.9148239 22.7509869,26.2981163 23.0411479,26.5749386 L27.4350137,31.0892711 L27.5179168,31.1744472 C27.8080777,31.4725635 28.1811418,31.6216216 28.5956575,31.6216216 C29.0101731,31.6216216 29.3832372,31.4512695 29.6733981,31.1531532 L29.7355755,31.0892711 L38.5440328,22.039312 C38.8341937,21.7411957 39,21.3579034 39,20.9320229 C38.9585484,20.5487305 38.7927422,20.1441441 38.523307,19.8460278 L38.523307,19.8460278 Z" id="形状"></path>
            </g>
        </g>
    </g>
</svg>