<?xml version="1.0" encoding="UTF-8"?>
<svg width="42px" height="30px" viewBox="0 0 42 30" version="1.1" xmlns="http://www.w3.org/2000/svg" xmlns:xlink="http://www.w3.org/1999/xlink">
    <!-- Generator: Sketch 54.1 (76490) - https://sketchapp.com -->
    <title>youxi-2</title>
    <desc>Created with Sketch.</desc>
    <g id="页面1" stroke="none" stroke-width="1" fill="none" fill-rule="evenodd">
        <g id="画板复制-3" transform="translate(-803.000000, -5479.000000)" fill="#FFFFFF" fill-rule="nonzero">
            <g id="youxi-2" transform="translate(803.000000, 5479.000000)">
                <path d="M4.9740301,29.8660866 C3.79841974,29.8661333 2.73606845,29.4329989 1.8122381,28.5762385 C0.846693004,27.6807928 0.305846058,25.9365567 0.110043058,23.0870894 C-0.0423672763,20.8689364 0.0584938743,18.3841819 0.169888583,16.6903298 C0.403351385,13.1415927 1.37891735,8.15390625 2.9692516,5.58893821 C3.61384943,4.54923873 4.49358798,3.22028587 5.58385787,2.16310813 C6.80053045,0.983396218 8.08711603,0.304354581 9.5172563,0.0871582031 C11.6407005,-0.23528054 13.3536621,0.697824929 14.8650413,1.52102717 C15.5612815,1.90023526 16.2189764,2.25846946 16.8945224,2.49775835 C18.8883478,3.20387962 20.885902,3.17619407 20.9059437,3.17596103 C21.5077548,3.1661266 22.0044633,3.64311967 22.0163019,4.24427823 C22.0281405,4.8454834 21.5517534,5.34265803 20.9505948,5.3554288 C20.8539751,5.35771262 18.5487105,5.39621138 16.1667281,4.55259455 C15.3280984,4.25555753 14.5625977,3.83864302 13.8222656,3.43543146 C12.4378951,2.68139648 11.2422896,2.03032005 9.84449574,2.24238947 C7.67565474,2.5717263 6.1488481,4.5975253 4.82199263,6.73756214 C3.50487837,8.86198509 2.56282404,13.5247159 2.34516158,16.8333718 C2.23810147,18.4604803 2.14078258,20.8403187 2.28489657,22.9375688 C2.49626687,26.0135542 3.11122159,26.8076727 3.29462669,26.9778409 C4.04619141,27.6748269 5.12928356,28.2030429 7.46414462,26.836337 C8.22237438,26.3925293 9.381159,25.2634344 10.5018643,24.1714866 C12.0283913,22.6841575 13.470277,21.2792325 14.6130282,20.8364968 C16.4897727,20.109355 20.4950417,20.1539129 20.9455611,20.1613703 C21.5474654,20.1713445 22.0273016,20.667354 22.0173273,21.2693049 C22.0074463,21.8650102 21.5213645,22.3412109 20.9278498,22.3412109 L20.9093928,22.3410711 C19.8032293,22.3230336 16.6560258,22.3828325 15.4005748,22.8692871 C14.6728271,23.1512229 13.2036288,24.5827148 12.0231246,25.7328769 C10.7529452,26.9705233 9.55314498,28.1394687 8.56536754,28.7176958 C7.35494052,29.4261941 6.27264071,29.7991566 5.25661843,29.8578369 C5.16172319,29.8633367 5.06743386,29.8660866 4.9740301,29.8660866 Z" id="路径"></path>
                <path d="M36.9029696,29.8660866 C36.8094727,29.8660866 36.7153698,29.8633367 36.6204279,29.8578369 C35.604359,29.7991566 34.5220592,29.4261941 33.3116788,28.7176958 C32.323948,28.1394687 31.1241477,26.9705233 29.8539218,25.7329235 C28.6734175,24.5826682 27.2041726,23.1511763 26.4764249,22.8692871 C25.2185036,22.3819469 22.0733509,22.3228005 20.9676536,22.3410711 L20.9491966,22.3412109 C20.3555886,22.3412575 19.8696001,21.8650568 19.859719,21.2693049 C19.8497448,20.6674006 20.3296276,20.1713445 20.9314853,20.1613703 C21.3820046,20.1538663 25.3873202,20.1094016 27.2639249,20.8364968 C28.4067227,21.2792325 29.8486084,22.6841575 31.375182,24.1715332 C32.4958407,25.2634344 33.654672,26.3924827 34.4129483,26.836337 C36.747623,28.2029497 37.8308549,27.6748269 38.582373,26.9777943 C38.7658248,26.8077193 39.3806863,26.0135542 39.5920566,22.9375688 C39.7362172,20.8402255 39.6388517,18.4604337 39.5318382,16.8333718 C39.3141291,13.5247159 38.3720748,8.86193848 37.0549605,6.73760875 C35.728105,4.59747869 34.2012518,2.5717263 32.0324574,2.24238947 C30.446784,2.0015625 29.1036155,2.74543679 27.5487971,3.60676491 C26.9864635,3.91829723 26.4049738,4.24045632 25.7985019,4.51689231 C23.760538,5.44608265 21.0258212,5.35915749 20.9102783,5.3549161 C20.3087003,5.33324308 19.8385587,4.82800515 19.8602317,4.22642711 C19.8819047,3.62526855 20.3857444,3.15498713 20.9875555,3.1763339 C21.0108132,3.17712624 23.3297341,3.24661976 24.8941539,2.53336737 C25.4230691,2.29226074 25.942476,2.00449885 26.4923651,1.69986461 C28.1549893,0.77878418 30.0396107,-0.265110085 32.3596968,0.0871115945 C33.7898371,0.304307972 35.0764227,0.983349609 36.2931419,2.16306152 C37.3833651,3.22019265 38.2631037,4.54919212 38.9077481,5.58884499 C40.4979892,8.15381303 41.4736017,13.1414995 41.7070645,16.6902832 C41.8185525,18.3840887 41.919367,20.8687966 41.7669101,23.0870428 C41.5711071,25.9365567 41.0302135,27.6807462 40.064715,28.5761919 C39.1409779,29.4329523 38.0784402,29.86604 36.9029696,29.8660866 L36.9029696,29.8660866 Z" id="路径"></path>
                <path d="M25.1163374,13.0575107 C25.1163374,13.7987266 25.5117714,14.4836383 26.1536832,14.8542463 C26.795595,15.2248542 27.5864629,15.2248542 28.2283747,14.8542463 C28.8702865,14.4836383 29.2657205,13.7987266 29.2657204,13.0575107 C29.2657205,12.3162948 28.8702865,11.631383 28.2283747,11.260775 C27.5864629,10.8901671 26.795595,10.8901671 26.1536832,11.260775 C25.5117714,11.631383 25.1163374,12.3162948 25.1163374,13.0575107 L25.1163374,13.0575107 Z" id="路径"></path>
                <path d="M33.1175071,13.0575107 C33.1175071,14.2033311 34.0463781,15.1322021 35.1921986,15.1322021 C36.3380191,15.1322021 37.2668901,14.2033311 37.2668901,13.0575107 C37.2668901,11.9116902 36.3380191,10.9828192 35.1921986,10.9828192 C34.0463781,10.9828192 33.1175071,11.9116902 33.1175071,13.0575107 L33.1175071,13.0575107 Z" id="路径"></path>
                <path d="M29.1169456,8.96312589 C29.1169455,9.70434179 29.5123795,10.3892535 30.1542913,10.7598615 C30.7962031,11.1304695 31.5870711,11.1304695 32.2289828,10.7598615 C32.8708946,10.3892535 33.2663286,9.70434179 33.2663286,8.96312589 C33.2663286,8.22190999 32.8708946,7.53699824 32.2289828,7.16639028 C31.5870711,6.79578232 30.7962031,6.79578232 30.1542913,7.16639028 C29.5123795,7.53699824 29.1169455,8.22190999 29.1169456,8.96312589 L29.1169456,8.96312589 Z" id="路径"></path>
                <path d="M29.1169456,17.0264715 C29.1169455,17.7676874 29.5123795,18.4525992 30.1542913,18.8232071 C30.7962031,19.1938151 31.5870711,19.1938151 32.2289828,18.8232071 C32.8708946,18.4525992 33.2663286,17.7676874 33.2663286,17.0264715 C33.2663286,16.2852556 32.8708946,15.6003438 32.2289828,15.2297359 C31.5870711,14.8591279 30.7962031,14.8591279 30.1542913,15.2297359 C29.5123795,15.6003438 29.1169455,16.2852556 29.1169456,17.0264715 L29.1169456,17.0264715 Z" id="路径"></path>
                <path d="M15.9867254,14.1672164 L6.24551447,14.1672164 C5.64351696,14.1672164 5.15552424,13.6792236 5.15552424,13.0772261 C5.15552424,12.4752286 5.64351696,11.9872359 6.24551447,11.9872359 L15.9867254,11.9872359 C16.5887229,11.9872359 17.0767156,12.4752286 17.0767156,13.0772261 C17.0767156,13.6792236 16.5886763,14.1672164 15.9867254,14.1672164 Z" id="路径"></path>
                <path d="M11.1161199,19.0378218 C10.5141224,19.0378218 10.0261297,18.5498291 10.0261297,17.9478316 L10.0261297,8.20662065 C10.0261297,7.60462314 10.5141224,7.11663042 11.1161199,7.11663042 C11.7181175,7.11663042 12.2061102,7.60462314 12.2061102,8.20662065 L12.2061102,17.9478316 C12.2060636,18.5498291 11.7180708,19.0378218 11.1161199,19.0378218 Z" id="路径"></path>
            </g>
        </g>
    </g>
</svg>