<?xml version="1.0" encoding="UTF-8"?>
<svg width="42px" height="38px" viewBox="0 0 42 38" version="1.1" xmlns="http://www.w3.org/2000/svg" xmlns:xlink="http://www.w3.org/1999/xlink">
    <!-- Generator: Sketch 54.1 (76490) - https://sketchapp.com -->
    <title>jisuan</title>
    <desc>Created with Sketch.</desc>
    <g id="页面1" stroke="none" stroke-width="1" fill="none" fill-rule="evenodd">
        <g id="画板复制-3" transform="translate(-804.000000, -5717.000000)" fill="#FFFFFF" fill-rule="nonzero">
            <g id="jisuan" transform="translate(804.000000, 5717.000000)">
                <path d="M15.8000554,25.6189904 C15.5112284,25.6189904 15.2342311,25.7337264 15.0299996,25.9379579 C14.8257681,26.1421894 14.711032,26.4191868 14.7110321,26.7080137 L14.7110321,33.9681693 C14.7110321,34.5696203 15.1986044,35.0571926 15.8000554,35.0571926 L37.5805221,35.0571926 C37.869349,35.0571926 38.1463464,34.9424566 38.3505779,34.7382251 C38.5548094,34.5339936 38.6695454,34.2569962 38.6695454,33.9681693 L38.6695454,26.7080137 C38.6695455,26.4191868 38.5548094,26.1421894 38.3505779,25.9379579 C38.1463464,25.7337264 37.869349,25.6189904 37.5805221,25.6189904 L15.8000554,25.6189904 Z M15.8000554,23.0779359 L37.5805221,23.0779359 C39.5853587,23.0779359 41.2105999,24.7031771 41.2105999,26.7080137 L41.2105999,33.9681693 C41.2105999,35.9730059 39.5853587,37.5982471 37.5805221,37.5982471 L15.8000554,37.5982471 C13.7952188,37.5982471 12.1699776,35.9730059 12.1699776,33.9681693 L12.1699776,26.7080137 C12.1699776,24.7031771 13.7952188,23.0779359 15.8000554,23.0779359 L15.8000554,23.0779359 Z" id="形状"></path>
                <path d="M32.1354054,30.365049 L33.9504443,30.365049 L32.1354054,30.365049 Z M32.1354054,28.5230526 L33.9504443,28.5230526 C34.9528626,28.5230526 35.7654832,29.3356732 35.7654832,30.3380915 C35.7654832,31.3405098 34.9528626,32.1531304 33.9504443,32.1531304 L32.1354054,32.1531304 C31.1329871,32.1531304 30.3203665,31.3405098 30.3203665,30.3380915 C30.3203665,29.3356732 31.1329871,28.5230526 32.1354054,28.5230526 L32.1354054,28.5230526 Z M11.8487157,9.11665675 C12.3067087,9.13359098 12.7200856,9.39587169 12.930491,9.80302509 C13.1408965,10.2101785 13.1157164,10.6990932 12.8645965,11.082477 C12.6134767,11.4658609 12.1753424,11.684287 11.7180329,11.6540812 C11.4453731,11.6402821 11.1722218,11.6390708 10.8994503,11.650451 C6.66268436,11.8217948 3.16456811,15.0185522 2.61326621,19.2227894 C2.06196431,23.4270267 4.61760368,27.4176134 8.6669525,28.6755159 C9.11392411,28.7989932 9.45812402,29.156176 9.56497505,29.6074111 C9.67182609,30.0586463 9.52435503,30.5322552 9.18022093,30.8430638 C8.83608683,31.1538724 8.34995514,31.2525089 7.91189632,31.1004079 C3.21015021,29.6339938 0.00826984469,25.2804954 0.00921699438,20.3553776 C0.00900822706,17.2689454 1.27649203,14.317897 3.51498458,12.1929934 C5.75347712,10.0680899 8.7664747,8.95586358 11.8487157,9.11665675 L11.8487157,9.11665675 Z M41.7877823,18.1410301 C41.9827526,18.8151565 41.5943199,19.5196985 40.9201936,19.7146688 C40.2460673,19.9096392 39.5415253,19.5212066 39.3465549,18.8470803 C38.5607476,16.1490272 36.389062,14.0791719 33.656408,13.4237441 C32.9737611,13.2613523 32.552011,12.5763132 32.7144028,11.8936663 C32.8767946,11.2110194 33.5618337,10.7892693 34.2444806,10.9516611 C37.8674588,11.8185809 40.7469864,14.5623079 41.7877823,18.1392151 L41.7877823,18.1410301 Z" id="形状"></path>
                <path d="M36.3553708,12.3692065 L33.8324668,12.6614277 C33.3582366,8.68066787 30.8383626,5.23709246 27.1876094,3.58078812 C25.1546552,2.66832555 22.9008628,2.3644576 20.6988454,2.7059394 C16.4124534,3.38268885 12.8768708,6.42423161 11.5673847,10.5614277 L9.14249273,9.79729635 C10.3486975,5.98812444 13.1258415,2.87633587 16.773845,1.24636945 C20.4218486,-0.383596972 24.5926642,-0.376229888 28.2348868,1.26661356 C32.6978765,3.29076438 35.7777596,7.50099351 36.3553708,12.3673914 L36.3553708,12.3692065 Z" id="路径"></path>
            </g>
        </g>
    </g>
</svg>