<?xml version="1.0" encoding="UTF-8"?>
<svg width="49px" height="51px" viewBox="0 0 49 51" version="1.1" xmlns="http://www.w3.org/2000/svg" xmlns:xlink="http://www.w3.org/1999/xlink">
    <!-- Generator: Sketch 54.1 (76490) - https://sketchapp.com -->
    <title>qukuailian-2</title>
    <desc>Created with Sketch.</desc>
    <g id="页面1" stroke="none" stroke-width="1" fill="none" fill-rule="evenodd">
        <g id="画板复制-3" transform="translate(-807.000000, -1784.000000)" fill="#E6007A" fill-rule="nonzero">
            <g id="qukuailian-2" transform="translate(807.000000, 1784.000000)">
                <g id="编组-21">
                    <path d="M23.52,2.94001521 C24.4969555,2.93939355 25.3909508,3.48519156 25.831232,4.3510582 C26.3129525,4.32737026 26.7915218,4.44021537 27.211072,4.67642006 L45.08,14.677016 L45.08,38.9044871 L23.52,50.96 L1.96,38.9044871 L1.96,14.6701663 L19.828928,4.67299519 C20.2507601,4.43591958 20.7314571,4.32194952 21.2156672,4.34420848 C21.6536714,3.48039748 22.5459239,2.93668479 23.52,2.94001521 Z M25.7898368,31.0923777 C25.3367496,31.9150495 24.4681644,32.4272547 23.5237666,32.4286807 C22.5793688,32.4301068 21.7092184,31.9205271 21.2536128,31.0992275 L9.825088,37.4078226 L23.52,45.0658132 L37.0044864,37.520843 L25.7898368,31.0923777 Z M26.1037504,9.95413181 L26.1037504,25.3386102 L39.9021504,33.2500406 L39.9056,17.6771948 L26.1037504,9.95413181 Z M20.9293504,9.95413181 L7.1344,17.6806196 L7.1309504,33.0205748 L20.9293504,25.4002577 L20.9293504,9.95755667 L20.9293504,9.95413181 Z" id="形状"></path>
                    <path d="M30.9473684,6.8992 C30.9473684,10.7095229 27.8683442,13.7984 24.0701754,13.7984 C20.2720066,13.7984 17.1929825,10.7095229 17.1929825,6.8992 C17.1929825,3.08887705 20.2720066,-2.32626149e-12 24.0701754,-2.32702746e-12 C27.8683442,-2.32779342e-12 30.9473684,3.08887705 30.9473684,6.8992 L30.9473684,6.8992 Z M49,36.2208 C49,40.0311229 45.9209758,43.12 42.122807,43.12 C38.3246382,43.12 35.245614,40.0311229 35.245614,36.2208 C35.245614,32.4104771 38.3246382,29.3216 42.122807,29.3216 C45.9209758,29.3216 49,32.4104771 49,36.2208 L49,36.2208 Z M13.754386,36.2208 C13.754386,40.0311229 10.6753618,43.12 6.87719298,43.12 C3.07902418,43.12 7.63521799e-16,40.0311229 0,36.2208 C-3.817609e-16,32.4104771 3.07902418,29.3216 6.87719298,29.3216 C10.6753618,29.3216 13.754386,32.4104771 13.754386,36.2208 L13.754386,36.2208 Z M15.4736842,22.1878272 L15.4736842,32.1468224 L24.0701754,37.1245952 L32.6666667,32.1468224 L32.6666667,22.1878272 L24.0701754,17.2100544 L15.4736842,22.1878272 Z" id="形状"></path>
                </g>
            </g>
        </g>
    </g>
</svg>