<?xml version="1.0" encoding="UTF-8"?>
<svg width="44px" height="44px" viewBox="0 0 44 44" version="1.1" xmlns="http://www.w3.org/2000/svg" xmlns:xlink="http://www.w3.org/1999/xlink">
    <!-- Generator: Sketch 54.1 (76490) - https://sketchapp.com -->
    <title>形状</title>
    <desc>Created with Sketch.</desc>
    <g id="页面1" stroke="none" stroke-width="1" fill="none" fill-rule="evenodd">
        <g id="画板复制-3" transform="translate(-1225.000000, -1453.000000)" fill="#E6007A" fill-rule="nonzero">
            <g id="编组-9" transform="translate(1223.000000, 1453.000000)">
                <g id="jiedian-3" transform="translate(2.000000, 0.000000)">
                    <path d="M42.1666667,11 C43.1786667,11 44,10.1786667 44,9.16666667 L44,1.83333333 C44,0.821333333 43.1786667,0 42.1666667,0 L1.83333333,0 C0.821333333,0 0,0.821333333 0,1.83333333 L0,9.16666667 C0,10.1786667 0.821333333,11 1.83333333,11 L33,11 L33,16.5 L1.83333333,16.5 C0.821333333,16.5 0,17.3213333 0,18.3333333 L0,25.6666667 C0,26.6786667 0.821333333,27.5 1.83333333,27.5 L33,27.5 L33,33 L1.83333333,33 C0.821333333,33 0,33.8213333 0,34.8333333 L0,42.1666667 C0,43.1786667 0.821333333,44 1.83333333,44 L42.1666667,44 C43.1786667,44 44,43.1786667 44,42.1666667 L44,34.8333333 C44,33.8213333 43.1786667,33 42.1666667,33 L38.5,33 L38.5,27.5 L42.1666667,27.5 C43.1786667,27.5 44,26.6786667 44,25.6666667 L44,18.3333333 C44,17.3213333 43.1786667,16.5 42.1666667,16.5 L38.5,16.5 L38.5,11 L42.1666667,11 Z M10.0833333,24.75 L4.58333333,24.75 L4.58333333,19.25 L10.0833333,19.25 L10.0833333,24.75 Z M10.0833333,41.25 L4.58333333,41.25 L4.58333333,35.75 L10.0833333,35.75 L10.0833333,41.25 Z M10.0833333,8.25 L4.58333333,8.25 L4.58333333,2.75 L10.0833333,2.75 L10.0833333,8.25 Z" id="形状"></path>
                </g>
            </g>
        </g>
    </g>
</svg>