<?xml version="1.0" encoding="UTF-8"?>
<svg width="46px" height="51px" viewBox="0 0 46 51" version="1.1" xmlns="http://www.w3.org/2000/svg" xmlns:xlink="http://www.w3.org/1999/xlink">
    <!-- Generator: Sketch 54.1 (76490) - https://sketchapp.com -->
    <title></title>
    <desc>Created with Sketch.</desc>
    <g id="1" stroke="none" stroke-width="1" fill="none" fill-rule="evenodd">
        <g id="-3" transform="translate(-399.000000, -1789.000000)" fill="#E6007A" fill-rule="nonzero">
            <g id="-10" transform="translate(399.000000, 1789.000000)">
                <g id="zhongcai">
                    <path d="M31.4936782,47.6306207 C32.4089159,47.6306207 33.1508626,48.384882 33.1508626,49.3153104 C33.1508626,50.2457388 32.4089159,51 31.4936782,51 L1.65718443,51 C0.741946743,51 0,50.2457388 0,49.3153104 C0,48.384882 0.741946743,47.6306207 1.65718443,47.6306207 L31.4936782,47.6306207 Z M28.6635515,8.83900088 L35.6976179,15.986169 C36.3194752,16.6180897 36.6688524,17.4753129 36.6688524,18.3691662 C36.6688524,19.2630194 36.3194752,20.1202426 35.6976179,20.7521633 L31.013023,25.5145111 L45.0739818,39.8161404 C46.3262108,41.1392033 46.3059171,43.237925 45.0283458,44.5357072 C43.7507745,45.8334894 41.6863029,45.8525135 40.3857999,44.5784882 L26.321254,30.2841519 L21.6294851,35.0537927 C21.0078816,35.6859714 20.1646538,36.0411473 19.2853942,36.0411473 C18.4061345,36.0411473 17.5629068,35.6859714 16.9413032,35.0537927 L9.91082377,27.9066245 C9.28786813,27.2745565 8.93779364,26.4165514 8.93779364,25.5218041 C8.93779364,24.6270568 9.28786813,23.7690517 9.91082377,23.1369837 L23.9717826,8.83900088 C24.5933862,8.2068222 25.4366139,7.85164621 26.3158736,7.85164621 C27.1951333,7.85164621 28.038361,8.2068222 28.6599646,8.83900088 L28.6635515,8.83900088 Z M4.04969963,26.7069213 L18.1142454,41.0012576 C18.7620435,41.6588006 18.7628465,42.7257048 18.1160389,43.3842547 C17.4692313,44.0428047 16.419746,44.043621 15.7719479,43.386078 L1.70740214,29.0917417 C1.26529403,28.6714462 1.08376725,28.0395407 1.23389093,27.4434211 C1.38401461,26.8473015 1.84190346,26.3818128 2.42829049,26.2291974 C3.01467751,26.0765821 3.63626613,26.2611218 4.04969963,26.7105678 L4.04969963,26.7069213 Z M29.8436677,0.492129488 L43.9082135,14.7937588 C44.5185836,15.4572957 44.50151,16.4933178 43.8696185,17.1356971 C43.2377271,17.7780764 42.2186197,17.7954334 41.565916,17.1749327 L27.4941963,2.88059638 C27.0745036,2.45524063 26.9099113,1.8345761 27.0624196,1.2524011 C27.214928,0.670226102 27.6613674,0.214986877 28.2335684,0.0581676392 C28.8057694,-0.0986515985 29.4168011,0.0667737242 29.8364938,0.492129488 L29.8436677,0.492129488 Z" id=""></path>
                </g>
            </g>
        </g>
    </g>
</svg>