<?xml version="1.0" encoding="UTF-8"?>
<svg width="50px" height="45px" viewBox="0 0 50 45" version="1.1" xmlns="http://www.w3.org/2000/svg" xmlns:xlink="http://www.w3.org/1999/xlink">
    <!-- Generator: Sketch 54.1 (76490) - https://sketchapp.com -->
    <title>form</title>
    <desc>Created with Sketch.</desc>
    <g id="page1" stroke="none" stroke-width="1" fill="none" fill-rule="evenodd">
        <g id="drawingcopy-3" transform="translate(-401.000000, -1456.000000)" fill="#E6007A" fill-rule="nonzero">
            <g id="group-7" transform="translate(399.000000, 1456.000000)">
                <g id="shuju-4" transform="translate(2.000000, -0.000000)">
                    <path d="M43.736084,0 C40.2766113,0 37.472168,2.83846462 37.472168,6.33979444 C37.472168,8.79461464 38.8507813,10.9234137 40.8670898,11.9767432 L33.5420898,26.2812488 C33.0080205,26.3175764 32.4807903,26.4233131 31.9733887,26.595854 L21.8415527,19.5475801 C22.6138672,18.4934104 23.0708496,17.1884857 23.0708496,15.775332 C23.0708496,12.2739527 20.2663574,9.43553754 16.8068848,9.43553754 C13.3474121,9.43553754 10.5429688,12.2740022 10.5429688,15.775332 C10.5429688,17.62323 11.3243164,19.2861998 12.5705566,20.4449908 L6.23608398,31.9636142 C2.78945313,31.9788849 0,34.8111226 0,38.3030627 C0,41.8044914 2.80449219,44.6428571 6.26391602,44.6428571 C9.72338867,44.6428571 12.5278809,41.8044419 12.5278809,38.3030627 C12.5278809,36.1024075 11.4198242,34.1638246 9.73774414,33.0270747 L15.7851074,22.0306683 C16.1228898,22.0868131 16.4646265,22.1150425 16.8069336,22.115077 C17.4930176,22.115077 18.1532227,22.0030427 18.7710449,21.7967653 L28.9205566,28.8572459 C28.1586426,29.9072643 27.7083008,31.2032441 27.7083008,32.6058714 C27.7083008,36.1072507 30.512793,38.9456659 33.9722168,38.9456659 C37.4316406,38.9456659 40.2361328,36.1072013 40.2361328,32.6058714 C40.2361328,30.2774666 38.9956543,28.2425648 37.1473145,27.1402604 L44.5818848,12.6218174 C47.6412598,12.2038263 50,9.55078406 50,6.33979444 C50,2.8384152 47.1955078,7.02294872e-16 43.736084,0 Z M6.26391602,40.9858061 C4.80004883,40.9858061 3.61328125,39.784712 3.61328125,38.3030627 C3.61328125,36.8214628 4.80004883,35.6203193 6.26391602,35.6203193 C7.72783203,35.6203193 8.91459961,36.8214628 8.91459961,38.3030627 C8.91459961,39.7847614 7.72783203,40.9858061 6.26391602,40.9858061 Z M16.8069336,18.4580754 C15.3430664,18.4580754 14.1562988,17.2569813 14.1562988,15.775332 C14.1562988,14.2937321 15.3430664,13.0925885 16.8069336,13.0925885 C18.2708496,13.0925885 19.4576172,14.2937321 19.4576172,15.775332 C19.4576172,17.2569813 18.2708496,18.4580754 16.8069336,18.4580754 L16.8069336,18.4580754 Z M33.9722168,35.2886149 C32.5083496,35.2886149 31.321582,34.0874713 31.321582,32.6058714 C31.321582,31.1242716 32.5083496,29.923128 33.9722168,29.923128 C35.436084,29.923128 36.6228516,31.1242716 36.6228516,32.6058714 C36.6228516,34.0874713 35.436084,35.2886149 33.9722168,35.2886149 Z M43.736084,9.02253787 C42.2722168,9.02253787 41.0854492,7.82139429 41.0854492,6.33979444 C41.0854492,4.85819459 42.2722168,3.65705101 43.736084,3.65705101 C45.1999512,3.65705101 46.3867187,4.85814517 46.3867187,6.33979444 C46.3867187,7.82144371 45.1999512,9.02253787 43.736084,9.02253787 L43.736084,9.02253787 Z" id="form"></path>
                </g>
            </g>
        </g>
    </g>
</svg>