<?xml version="1.0" encoding="UTF-8"?>
<svg width="46px" height="46px" viewBox="0 0 46 46" version="1.1" xmlns="http://www.w3.org/2000/svg" xmlns:xlink="http://www.w3.org/1999/xlink">
    <!-- Generator: Sketch 54.1 (76490) - https://sketchapp.com -->
    <title>form</title>
    <desc>Created with Sketch.</desc>
    <g id="page1" stroke="none" stroke-width="1" fill="none" fill-rule="evenodd">
        <g id="drawingcopy-3" transform="translate(-807.000000, -1451.000000)" fill="#E6007A" fill-rule="nonzero">
            <g id="group-8" transform="translate(807.000000, 1451.000000)">
                <g id="shujucangku">
                    <path d="M45.8469844,12.814587 L45.3873523,13.5822777 C45.0809308,14.1964302 44.3148773,14.3499683 43.7020345,14.042892 L22.997456,3.28463435 L2.29816066,14.042892 C1.68531782,14.3499683 0.919264264,14.042892 0.612842843,13.5822777 L0.153210711,12.814587 C-0.153210711,12.2004345 6.80042394e-15,11.586282 0.612842843,11.2792058 L21.7717703,0.367409949 C22.8442453,-0.246742556 23.3038774,0.0603336967 23.7635095,0.213871823 L45.3820691,11.2792058 C46.0001951,11.4274495 46.1534058,12.2004345 45.8469844,12.814587 Z M2.45137137,16.4995021 L3.21742493,16.0388877 L22.997456,5.90007692 L42.3178549,16.0388877 L43.5435406,16.6530402 C44.0031727,16.8065783 44.3095942,16.9601164 44.3095942,17.4207308 L44.3095942,45.2323094 C44.3095942,45.6929237 44.0031727,46 43.5435406,46 L2.45137137,46 C1.99173924,46 1.68531782,45.6929237 1.68531782,45.2323094 L1.68531782,17.2671927 C1.68531782,16.8065783 1.99173924,16.8065783 2.45137137,16.4995021 Z M8.27866151,41.08678 C8.27866151,41.2403181 8.43187222,41.2403181 8.43187222,41.2403181 L37.5630398,41.2403181 C37.7162505,41.2403181 37.7162505,41.08678 37.7162505,41.08678 L37.7162505,38.3230937 C37.7162505,38.1695556 37.5630398,38.1695556 37.5630398,38.1695556 L8.43187222,38.1695556 C8.27866151,38.1695556 8.27866151,38.3230937 8.27866151,38.3230937 L8.27866151,41.08678 Z M8.27866151,34.6328842 C8.27866151,34.7864224 8.43187222,34.7864224 8.43187222,34.7864224 L37.5630398,34.7864224 C37.7162505,34.7864224 37.7162505,34.6328842 37.7162505,34.6328842 L37.7162505,31.869198 C37.7162505,31.7156598 37.5630398,31.7156598 37.5630398,31.7156598 L8.43187222,31.7156598 C8.27866151,31.7156598 8.27866151,31.869198 8.27866151,31.869198 L8.27866151,34.6328842 Z M8.27866151,28.3325266 C8.27866151,28.4860648 8.43187222,28.4860648 8.43187222,28.4860648 L37.5630398,28.4860648 C37.7162505,28.4860648 37.7162505,28.3325266 37.7162505,28.3325266 L37.7162505,25.5688404 C37.7162505,25.4153022 37.5630398,25.4153022 37.5630398,25.4153022 L8.43187222,25.4153022 C8.27866151,25.4153022 8.27866151,25.5688404 8.27866151,25.5688404 L8.27866151,28.3325266 Z" id="form"></path>
                </g>
            </g>
        </g>
    </g>
</svg>