<?xml version="1.0" encoding="UTF-8"?>
<svg width="144px" height="143px" viewBox="0 0 144 143" version="1.1" xmlns="http://www.w3.org/2000/svg" xmlns:xlink="http://www.w3.org/1999/xlink">
    <!-- Generator: Sketch 54.1 (76490) - https://sketchapp.com -->
    <title> 13</title>
    <desc>Created with Sketch.</desc>
    <g id="1" stroke="none" stroke-width="1" fill="none" fill-rule="evenodd" stroke-dasharray="4">
        <g id="-3" transform="translate(-492.000000, -3198.000000)" fill-rule="nonzero" stroke-width="4">
            <g id="-13" transform="translate(494.000000, 3200.000000)">
                <path d="M74.1267977,133.873634 C78.5473589,138.294717 84.9908276,140.02147 91.0297953,138.403385 C97.0687631,136.785301 101.78567,132.06823 103.403543,126.029205 C105.021417,119.990181 103.294439,113.546773 98.8732023,109.126366 C94.4526411,104.705283 88.0091724,102.97853 81.9702047,104.596615 C75.9312369,106.214699 71.2143305,110.93177 69.5964566,116.970795 C67.9785827,123.009819 69.7055611,129.453227 74.1267977,133.873634 L74.1267977,133.873634 Z" id="" stroke="#E6007A"></path>
                <path d="M0,91 C0,106.463973 12.536027,119 28,119 C43.463973,119 56,106.463973 56,91 C56,75.536027 43.463973,63 28,63 C12.536027,63 0,75.536027 0,91 Z" id="" stroke="#FFFFFF"></path>
                <path d="M56,42 C56,65.1959595 74.8040405,84 98,84 C121.195959,84 140,65.1959595 140,42 C140,18.8040405 121.195959,0 98,0 C74.8040405,0 56,18.8040405 56,42 Z" id="" stroke="#E6007A"></path>
            </g>
        </g>
    </g>
</svg>