<?xml version="1.0" encoding="UTF-8"?>
<svg width="151px" height="129px" viewBox="0 0 151 129" version="1.1" xmlns="http://www.w3.org/2000/svg" xmlns:xlink="http://www.w3.org/1999/xlink">
    <!-- Generator: Sketch 54.1 (76490) - https://sketchapp.com -->
    <title>group 14</title>
    <desc>Created with Sketch.</desc>
    <g id="page1" stroke="none" stroke-width="1" fill="none" fill-rule="evenodd" stroke-dasharray="4">
        <g id="drawingcopy-3" transform="translate(-888.000000, -3205.000000)" fill-rule="nonzero" stroke-width="4">
            <g id="group-14" transform="translate(890.000000, 3207.000000)">
                <path d="M47.9347826,38.3478261 C38.5950964,45.2498005 32.03193,55.8458156 30.2879626,68.0444403 C29.9836627,70.1729435 29.826087,72.3502393 29.826087,74.5652174 M53.2608696,113.351754 C59.26959,116.475678 66.0850474,118.23913 73.3082767,118.23913 C81.3366135,118.23913 88.8612112,116.060658 95.3342757,112.25702 M117.173913,73.9319557 C117.173913,60.5767393 111.323939,48.6016108 102.071049,40.4782609" id="form" stroke="#FFFFFF"></path>
                <path d="M50.0652174,25.0326087 C50.0652174,38.8577367 61.034241,50.0652174 74.5652174,50.0652174 C88.0961938,50.0652174 99.0652174,38.8577367 99.0652174,25.0326087 C99.0652174,11.2074807 88.0961938,0 74.5652174,0 C61.034241,0 50.0652174,11.2074807 50.0652174,25.0326087 Z" id="pathcopy" stroke="#E6007A"></path>
                <path d="M0,99.5978261 C6.94794464e-15,113.422954 11.2074807,124.630435 25.0326087,124.630435 C38.8577367,124.630435 50.0652174,113.422954 50.0652174,99.5978261 C50.0652174,85.7726981 38.8577367,74.5652174 25.0326087,74.5652174 C11.2074807,74.5652174 6.94794464e-15,85.7726981 0,99.5978261 Z" id="pathcopy-2" stroke="#E6007A"></path>
                <path d="M96.9347826,99.5978261 C96.9347826,113.422954 108.142263,124.630435 121.967391,124.630435 C135.792519,124.630435 147,113.422954 147,99.5978261 C147,85.7726981 135.792519,74.5652174 121.967391,74.5652174 C108.142263,74.5652174 96.9347826,85.7726981 96.9347826,99.5978261 Z" id="pathcopy-3" stroke="#E6007A"></path>
            </g>
        </g>
    </g>
</svg>