<svg version="1.1" id="Layer_1" xmlns="http://www.w3.org/2000/svg" xmlns:xlink="http://www.w3.org/1999/xlink" x="0px" y="0px" viewBox="0 0 464 197.5" style="enable-background:new 0 0 464 197.5;" xml:space="preserve">
<g fill="#ffffff">
	<path class="st0" d="M98.6,64V49.4c0-5.3-3.2-10-8.1-12.1L0,0v8.1l80.7,33.3c2.8,1.1,2.8,5.1,0,6.2L0,80.9v32.5l48.6-20.1l32,13.2
		c2.8,1.1,2.8,5.1,0,6.2L0,146v51.5l90.5-37.3c4.9-2,8.1-6.8,8.1-12.1v-33.5c0-5.3-3.2-10-8.1-12.1L58.4,89.3l32.1-13.2
		C95.4,74.1,98.6,69.3,98.6,64z"></path>
	<g>
		<path class="st0" d="M170.7,49.4l7.2,28.1l8.1-28.1h7.7l7.6,28.1l7.5-28.1h5.7l-9.7,33.9h-7.2l-8-29.2l-8.3,29.2H174l-9.4-33.9
			H170.7z"></path>
		<path class="st0" d="M223.2,68c0.2,2.8,0.5,4.2,1.4,6c1.7,3.2,5.5,5.3,9.3,5.3c4.6,0,7.6-2.2,8.9-6.5h6.3
			c-1.6,7.3-7.1,11.4-15.3,11.4c-10.2,0-16.7-7-16.7-18c0-10.7,6.5-17.9,16.2-17.9c10.3,0,15.9,7,15.9,19.6H223.2z M241.4,57.6
			c-1.6-2.7-4.8-4.3-8.1-4.3c-5.7,0-9.3,3.6-10,10.1H243C242.7,60.4,242.3,59,241.4,57.6z"></path>
		<path class="st0" d="M254.9,36.5h5.8v18c2.4-4,5.7-5.9,10.5-5.9c8.4,0,14.4,7.3,14.4,17.8c0,10.5-5.7,17.6-14.3,17.6
			c-4.7,0-7.8-1.9-10.8-6.3v5.6h-5.6V36.5z M260.8,66.2c0,7.4,4.2,12.9,9.7,12.9c5.3,0,8.8-5,8.8-12.7c0-8.1-3.5-13.1-9-13.1
			S260.8,58.6,260.8,66.2z"></path>
		<path class="st0" d="M296.1,69c-0.1,6,3.7,9.9,9.7,9.9c5.4,0,9.3-3.4,9.3-8.1c0-4.8-3.7-7.7-9.7-7.7c-0.6,0-1.1,0-2,0.1V58
			c0.7,0,1.1,0,1.5,0c6.2,0,9.8-2.7,9.8-7.5c0-4.5-3.5-7.4-8.8-7.4c-5.7,0-9,3.4-9.2,9.4h-6.2c0.4-9.3,6.1-14.7,15.5-14.7
			c8.7,0,14.8,5,14.8,12.2c0,4.8-3.4,9.2-8,10.4c5.6,1.4,8.6,5.2,8.6,10.8c0,7.6-6.5,13-15.7,13c-9.6,0-16.1-6.2-16-15.2H296.1z"></path>
		<path class="st0" d="M171,119.3h-6.1v-4.7h6.1c0.1-5.6,0.2-6.8,1-8.8c1.2-3.2,4.3-4.9,8.9-4.9c0.9,0,1.7,0.1,3.2,0.2v5.2
			c-1.4-0.4-2-0.4-2.9-0.4c-2,0-3.5,1-4,2.8c-0.4,1.2-0.4,2.1-0.4,5.8h7.3v4.7h-7.3v29.2H171V119.3z"></path>
		<path class="st0" d="M218.2,131.5c0,10.9-6.5,18-16.5,18c-9.8,0-16.3-7.3-16.3-18.1c0-10.7,6.6-17.8,16.5-17.8
			C211.6,113.7,218.2,120.9,218.2,131.5z M191.7,131.2c0,8.3,3.7,13.4,9.9,13.4c6.2,0,10.3-5.1,10.3-13c0-8-4-13.1-10.2-13.1
			C195.5,118.5,191.7,123.4,191.7,131.2z"></path>
		<path class="st0" d="M246.4,144.5c-1.7,3-5.6,4.8-10.2,4.8c-4.7,0-8.4-1.9-10.4-5.2c-1.3-2.2-1.7-4.5-1.7-10.2v-19.3h5.8V135
			c0,6.4,2.4,9.4,7.3,9.4c3.2,0,6-1.5,7.6-4c1-1.6,1.2-3.5,1.2-9.5v-16.2h5.8v33.9h-5.6V144.5z"></path>
		<path class="st0" d="M264.5,118.7c2.6-3.4,5.7-4.8,10.3-4.8c4.7,0,8.4,1.9,10.4,5.2c1.3,2.2,1.7,4.5,1.7,10.2v19.3H281v-20.4
			c0-6.5-2.4-9.4-7.3-9.4c-3.3,0-6,1.5-7.6,4.1c-1,1.6-1.2,3.4-1.2,9.5v16.2H259v-33.9h5.5V118.7z"></path>
		<path class="st0" d="M317.8,148.5v-5.6c-3,4.5-6.2,6.3-10.8,6.3c-8.5,0-14.3-7.1-14.3-17.5c0-10.6,5.9-17.9,14.4-17.9
			c4.8,0,8.1,1.9,10.5,5.9v-18h5.8v46.7H317.8z M299,131.7c0,7.7,3.4,12.7,8.8,12.7c5.5,0,9.7-5.5,9.7-12.9c0-7.6-3.9-12.9-9.4-12.9
			S299,123.6,299,131.7z"></path>
		<path class="st0" d="M352.8,148.5c-0.3-1.8-0.4-2.4-0.6-4.2c-2.9,3.5-6.2,5-10.9,5c-7.3,0-12.2-4.2-12.2-10.3
			c0-4.5,2.5-7.6,7.5-9.1c1.6-0.5,4.2-1,7.2-1.4c1.9-0.3,4.1-0.6,7.9-0.9c-0.1-4.4-0.3-5.7-1.5-7c-1.2-1.3-3.3-2.1-5.9-2.1
			c-5,0-7.5,2.2-7.8,6.8h-6.1c0.6-4.2,1.4-6.3,3.6-8.2c2.4-2.2,6.2-3.5,10.3-3.5c5.1,0,9.1,1.7,11.3,5c1.8,2.5,2.1,5,2,15.8
			c-0.1,6.8,0.2,10.4,1.1,14.1H352.8z M335.4,139.2c0,3.4,2.6,5.4,6.8,5.4c3.6,0,6.4-1.3,8.1-3.9c1-1.5,1.4-3.5,1.4-7.3v-1.2
			C339.6,133,335.4,134.8,335.4,139.2z"></path>
		<path class="st0" d="M372.9,114.7h7.6v4.7h-7.6v18.1c0,3.8,0.1,4.5,0.7,5.3c0.6,0.8,2,1.3,3.6,1.3c1.2,0,2.3-0.2,3.3-0.5v5
			c-2.7,0.5-3.7,0.6-5.1,0.6c-3.1,0-5.8-1.4-7.2-3.7c-0.8-1.5-1.1-2.9-1.1-6.2v-2.2v-17.8h-6.2v-4.7h6.2v-8.2h5.8V114.7z"></path>
		<path class="st0" d="M385.7,101.8h5.8v6.8h-5.8V101.8z M391.6,114.7v33.9h-5.8v-33.9H391.6z"></path>
		<path class="st0" d="M430.2,131.5c0,10.9-6.5,18-16.5,18c-9.8,0-16.3-7.3-16.3-18.1c0-10.7,6.6-17.8,16.5-17.8
			C423.6,113.7,430.2,120.9,430.2,131.5z M403.7,131.2c0,8.3,3.7,13.4,9.9,13.4c6.2,0,10.3-5.1,10.3-13c0-8-4-13.1-10.2-13.1
			C407.5,118.5,403.7,123.4,403.7,131.2z"></path>
		<path class="st0" d="M441.6,118.7c2.6-3.4,5.7-4.8,10.3-4.8c4.7,0,8.4,1.9,10.4,5.2c1.3,2.2,1.7,4.5,1.7,10.2v19.3h-5.8v-20.4
			c0-6.5-2.4-9.4-7.3-9.4c-3.3,0-6,1.5-7.6,4.1c-1,1.6-1.2,3.4-1.2,9.5v16.2h-5.8v-33.9h5.5V118.7z"></path>
	</g>
</g>
</svg>