<?xml version="1.0" encoding="UTF-8"?>
<svg width="31px" height="31px" viewBox="0 0 31 31" version="1.1" xmlns="http://www.w3.org/2000/svg" xmlns:xlink="http://www.w3.org/1999/xlink">
    <!-- Generator: Sketch 54.1 (76490) - https://sketchapp.com -->
    <title>形状复制 4</title>
    <desc>Created with Sketch.</desc>
    <g id="页面1" stroke="none" stroke-width="1" fill="none" fill-rule="evenodd">
        <g id="画板复制-3" transform="translate(-1067.000000, -6993.000000)" fill="#E6007A" fill-rule="nonzero">
            <path d="M1082.5,6993 C1091.06084,6993 1098,6999.93916 1098,7008.5 C1098,7017.06084 1091.06084,7024 1082.5,7024 C1073.93916,7024 1067,7017.06084 1067,7008.5 C1067,6999.93916 1073.93916,6993 1082.5,6993 Z M1078.82069,7006.27866 L1076.00647,7006.27866 L1076.00647,7015.32097 L1078.82069,7015.32097 L1078.82069,7006.27866 Z M1085.97975,7006.05391 C1084.61188,7006.05391 1083.6935,7006.80275 1083.31956,7007.51381 L1083.28081,7007.51381 L1083.28081,7006.27866 L1080.58575,7006.27866 L1080.58575,7015.32097 L1083.39416,7015.32097 L1083.39416,7010.84631 C1083.39416,7009.66831 1083.61697,7008.52616 1085.07978,7008.52616 C1086.52128,7008.52616 1086.54259,7009.87466 1086.54259,7010.92381 L1086.54259,7015.32097 L1089.35197,7015.32097 L1089.35197,7010.36097 C1089.35197,7007.92553 1088.82497,7006.05391 1085.98072,7006.05391 L1085.97975,7006.05391 Z M1077.41503,7001.78366 C1076.83289,7001.78296 1076.2946,7002.09289 1076.00293,7002.5967 C1075.71126,7003.1005 1075.71052,7003.72164 1076.00099,7004.22613 C1076.29146,7004.73063 1076.82901,7005.04184 1077.41116,7005.04253 C1078.31107,7005.0436 1079.04146,7004.31494 1079.04253,7003.41503 C1079.0436,7002.51512 1078.31494,7001.78473 1077.41503,7001.78366 L1077.41503,7001.78366 Z" id="形状复制-4"></path>
        </g>
    </g>
</svg>