<?xml version="1.0" encoding="UTF-8"?>
<svg width="27px" height="27px" viewBox="0 0 27 27" version="1.1" xmlns="http://www.w3.org/2000/svg" xmlns:xlink="http://www.w3.org/1999/xlink">
    <!-- Generator: Sketch 54.1 (76490) - https://sketchapp.com -->
    <title>形状</title>
    <desc>Created with Sketch.</desc>
    <g id="页面1" stroke="none" stroke-width="1" fill="none" fill-rule="evenodd">
        <g id="画板复制-20" transform="translate(-611.000000, -6771.000000)" fill="#9F9F9F" fill-rule="nonzero">
            <path d="M624.5,6771 C631.956219,6771 638,6777.04378 638,6784.5 C638,6791.95622 631.956219,6798 624.5,6798 C617.043781,6798 611,6791.95622 611,6784.5 C611,6777.04378 617.043781,6771 624.5,6771 Z M621.295438,6782.56528 L618.844344,6782.56528 L618.844344,6790.44084 L621.295438,6790.44084 L621.295438,6782.56528 Z M627.53075,6782.36953 C626.339375,6782.36953 625.5395,6783.02175 625.213813,6783.64106 L625.180063,6783.64106 L625.180063,6782.56528 L622.83275,6782.56528 L622.83275,6790.44084 L625.278781,6790.44084 L625.278781,6786.54356 C625.278781,6785.51756 625.472844,6784.52278 626.746906,6784.52278 C628.002406,6784.52278 628.020969,6785.69728 628.020969,6786.61106 L628.020969,6790.44084 L630.467844,6790.44084 L630.467844,6786.12084 C630.467844,6783.99966 630.008844,6782.36953 627.531594,6782.36953 L627.53075,6782.36953 Z M620.071156,6778.65028 C619.564129,6778.64968 619.095296,6778.91962 618.84126,6779.35841 C618.587225,6779.79721 618.586581,6780.3382 618.839573,6780.7776 C619.092564,6781.217 619.560754,6781.48805 620.067781,6781.48866 C620.851577,6781.48959 621.487724,6780.85495 621.488656,6780.07116 C621.489588,6779.28736 620.854952,6778.65121 620.071156,6778.65028 L620.071156,6778.65028 Z" id="形状"></path>
        </g>
    </g>
</svg>