<?xml version="1.0" encoding="UTF-8"?>
<svg width="31px" height="31px" viewBox="0 0 31 31" version="1.1" xmlns="http://www.w3.org/2000/svg" xmlns:xlink="http://www.w3.org/1999/xlink">
    <!-- Generator: Sketch 54.1 (76490) - https://sketchapp.com -->
    <title>form</title>
    <desc>Created with Sketch.</desc>
    <g id="page1" stroke="none" stroke-width="1" fill="none" fill-rule="evenodd">
        <g id="drawingcopy-3" transform="translate(-580.000000, -6535.000000)" fill="#FFFFFF" fill-rule="nonzero">
            <path d="M595.5,6535 C604.060844,6535 611,6541.93916 611,6550.5 C611,6559.06084 604.060844,6566 595.5,6566 C586.939156,6566 580,6559.06084 580,6550.5 C580,6541.93916 586.939156,6535 595.5,6535 Z M591.820688,6548.27866 L589.006469,6548.27866 L589.006469,6557.32097 L591.820688,6557.32097 L591.820688,6548.27866 Z M598.97975,6548.05391 C597.611875,6548.05391 596.6935,6548.80275 596.319563,6549.51381 L596.280813,6549.51381 L596.280813,6548.27866 L593.58575,6548.27866 L593.58575,6557.32097 L596.394156,6557.32097 L596.394156,6552.84631 C596.394156,6551.66831 596.616969,6550.52616 598.079781,6550.52616 C599.521281,6550.52616 599.542594,6551.87466 599.542594,6552.92381 L599.542594,6557.32097 L602.351969,6557.32097 L602.351969,6552.36097 C602.351969,6549.92553 601.824969,6548.05391 598.980719,6548.05391 L598.97975,6548.05391 Z M590.415031,6543.78366 C589.832889,6543.78296 589.294599,6544.09289 589.002928,6544.5967 C588.711258,6545.1005 588.710519,6545.72164 589.000991,6546.22613 C589.291462,6546.73063 589.829014,6547.04184 590.411156,6547.04253 C591.31107,6547.0436 592.041461,6546.31494 592.042531,6545.41503 C592.043601,6544.51512 591.314945,6543.78473 590.415031,6543.78366 L590.415031,6543.78366 Z" id="form"></path>
        </g>
    </g>
</svg>