<?xml version="1.0" encoding="UTF-8"?>
<svg width="21px" height="17px" viewBox="0 0 21 17" version="1.1" xmlns="http://www.w3.org/2000/svg" xmlns:xlink="http://www.w3.org/1999/xlink">
    <!-- Generator: Sketch 54.1 (76490) - https://sketchapp.com -->
    <title>medium-2</title>
    <desc>Created with Sketch.</desc>
    <g id="1" stroke="none" stroke-width="1" fill="none" fill-rule="evenodd">
        <g id="-3" transform="translate(-475.000000, -9080.000000)" fill="#FFFFFF" fill-rule="nonzero">
            <g id="medium-2" transform="translate(475.000000, 9080.000000)">
                <path d="M2.49024999,3.46816776 C2.51614229,3.20524831 2.41768526,2.94547312 2.22512499,2.76864536 L0.265125,0.359575927 L0.265125,0 L6.3525,0 L11.05825,10.5240645 L15.196125,0 L21,0 L21,0.359575927 L19.3235,1.9986354 C19.178839,2.11098586 19.1070888,2.29578644 19.137125,2.47866478 L19.137125,14.5222275 C19.1074327,14.7048117 19.1791469,14.889176 19.3235,15.0013646 L20.960625,16.6404241 L20.960625,17 L12.725125,17 L12.725125,16.6404241 L14.42175,14.9612135 C14.588,14.7916863 14.588,14.7417205 14.588,14.4820763 L14.588,4.74675905 L9.87174999,16.9598488 L9.23562501,16.9598488 L3.74499999,4.74675905 L3.74499999,12.9322416 C3.69949999,13.2757571 3.8115,13.6228416 4.04862501,13.8708865 L6.25449999,16.5993807 L6.25449999,16.9598488 L0,16.9598488 L0,16.5993807 L2.20587501,13.8708865 C2.44212501,13.6219493 2.54712501,13.2730803 2.49024999,12.9322416 L2.49024999,3.46816776 Z" id=""></path>
            </g>
        </g>
    </g>
</svg>