<?xml version="1.0" encoding="UTF-8"?>
<svg width="23px" height="23px" viewBox="0 0 23 23" version="1.1" xmlns="http://www.w3.org/2000/svg" xmlns:xlink="http://www.w3.org/1999/xlink">
    <!-- Generator: Sketch 54.1 (76490) - https://sketchapp.com -->
    <title>zhifeiji</title>
    <desc>Created with Sketch.</desc>
    <g id="页面1" stroke="none" stroke-width="1" fill="none" fill-rule="evenodd">
        <g id="画板复制-3" transform="translate(-545.000000, -9076.000000)" fill="#FFFFFF" fill-rule="nonzero">
            <g id="zhifeiji" transform="translate(545.000000, 9076.000000)">
                <path d="M22.6428111,0.14375 C22.9274091,0.347875 23.0395234,0.623875 22.9877783,0.963125 L19.7019657,20.677 C19.6588448,20.92425 19.5208579,21.116875 19.2908798,21.254875 C19.173016,21.321 19.0379038,21.358375 18.8941675,21.358375 C18.7993015,21.358375 18.6958113,21.335375 18.5865717,21.29225 L12.7738743,18.9175 L9.66629469,22.70675 C9.51105944,22.905125 9.30120439,23 9.03672953,23 C8.92748992,23 8.83262394,22.98275 8.75213159,22.94825 C8.59114689,22.887875 8.45890946,22.790125 8.36116875,22.646375 C8.26342805,22.5055 8.21168297,22.35025 8.21168297,22.17775 L8.21168297,17.701375 L19.2995039,4.108375 L5.58130801,15.982125 L0.513164799,13.9035 C0.19694486,13.785625 0.0244612562,13.549875 0.00146344238,13.19625 C-0.015784918,12.854125 0.119327238,12.601125 0.412549364,12.43725 L21.7660195,0.115 C21.8953822,0.037375 22.0304943,0 22.1771054,0 C22.349589,0 22.5048242,0.048875 22.6428111,0.14375 Z" id="路径"></path>
            </g>
        </g>
    </g>
</svg>