<?xml version="1.0" encoding="UTF-8"?>
<svg width="21px" height="23px" viewBox="0 0 21 23" version="1.1" xmlns="http://www.w3.org/2000/svg" xmlns:xlink="http://www.w3.org/1999/xlink">
    <!-- Generator: Sketch 54.1 (76490) - https://sketchapp.com -->
    <title>github</title>
    <desc>Created with Sketch.</desc>
    <g id="page1" stroke="none" stroke-width="1" fill="none" fill-rule="evenodd">
        <g id="drawingcopy-3" transform="translate(-620.000000, -9078.000000)" fill="#FFFFFF" fill-rule="nonzero">
            <g id="github" transform="translate(620.000000, 9078.000000)">
                <path d="M7.44124456,22.7000483 C7.44124456,22.3382018 7.42214772,21.1383951 7.42214772,19.8624101 C3.58368315,20.5670585 2.59064754,18.9292271 2.28509812,18.0722223 C2.11322657,17.6341976 1.36844987,16.2820344 0.719157353,15.9201879 C0.184445871,15.6345196 -0.579427675,14.9298712 0.700060515,14.9108267 C1.90316135,14.8917821 2.76251909,16.0154107 3.04897167,16.4724799 C4.42394405,18.7768707 6.6200805,18.1293559 7.49853507,17.7294203 C7.63221294,16.7391036 8.03324656,16.0725443 8.47247385,15.6916533 C5.07323657,15.3107623 1.52122458,13.9966882 1.52122458,8.1690554 C1.52122458,6.51217941 2.11322657,5.14097169 3.08716535,4.0744768 C2.93439064,3.69358576 2.39967915,2.13193253 3.23994006,0.0370318455 C3.23994006,0.0370318455 4.51942824,-0.362903739 7.44124456,1.59868508 C8.66344223,1.25588315 9.96202726,1.08448219 11.2606123,1.08448219 C12.5591973,1.08448219 13.8577823,1.25588315 15.07998,1.59868508 C18.0017963,-0.381948291 19.2812845,0.0370318455 19.2812845,0.0370318455 C20.1215454,2.13193253 19.5868339,3.69358576 19.4340592,4.0744768 C20.407998,5.14097169 21,6.49313486 21,8.1690554 C21,14.0157328 17.4288912,15.3107623 14.0296539,15.6916533 C14.5834622,16.1677671 15.0608832,17.0819056 15.0608832,18.5102469 C15.0608832,20.548014 15.0417863,22.1858454 15.0417863,22.7000483 C15.0417863,23.0999839 7.44124456,23.0999839 7.44124456,22.7000483 Z" id="path"></path>
            </g>
        </g>
    </g>
</svg>