<?xml version="1.0" encoding="UTF-8"?>
<svg width="21px" height="17px" viewBox="0 0 21 17" version="1.1" xmlns="http://www.w3.org/2000/svg" xmlns:xlink="http://www.w3.org/1999/xlink">
    <!-- Generator: Sketch 54.1 (76490) - https://sketchapp.com -->
    <title>tuite</title>
    <desc>Created with Sketch.</desc>
    <g id="page1" stroke="none" stroke-width="1" fill="none" fill-rule="evenodd">
        <g id="drawingcopy-3" transform="translate(-404.000000, -9081.000000)" fill="#FFFFFF" fill-rule="nonzero">
            <g id="tuite" transform="translate(404.000000, 9081.000000)">
                <path d="M20.4477142,0.323462684 C20.4477142,0.323462684 18.514714,1.42704125 17.6862853,1.42704125 C15.8913565,-1.33190517 9.26392717,-0.0903792793 10.3684987,5.15161892 C4.70756948,5.28956624 1.53192625,0.875251968 1.53192625,0.875251968 C1.53192625,0.875251968 -0.401073986,4.04804035 2.77456925,6.53109213 C2.08421203,6.66903945 0.979640465,6.25519749 0.979640465,6.25519749 C0.979640465,6.25519749 0.427354684,9.01414391 4.29335515,10.2556698 C3.87914081,10.8074591 2.36035492,10.3936171 2.36035492,10.3936171 C2.36035492,10.3936171 2.77456925,12.7387216 6.22635538,13.4284582 C3.87914081,15.6356153 -0.263002541,14.9458787 0.0131403492,15.2217733 C3.46492648,18.2566144 18.6527854,18.946351 18.7908569,4.46188231 C19.6192855,4.18598767 21,2.11677786 21,2.11677786 C21,2.11677786 18.7908569,2.80651446 18.6527854,2.66856714 C20.3096428,1.70293589 20.4477142,0.323462684 20.4477142,0.323462684" id="path"></path>
            </g>
        </g>
    </g>
</svg>