<?xml version="1.0" encoding="UTF-8"?>
<svg width="21px" height="17px" viewBox="0 0 21 17" version="1.1" xmlns="http://www.w3.org/2000/svg" xmlns:xlink="http://www.w3.org/1999/xlink">
    <!-- Generator: Sketch 54.1 (76490) - https://sketchapp.com -->
    <title>weixin</title>
    <desc>Created with Sketch.</desc>
    <g id="1" stroke="none" stroke-width="1" fill="none" fill-rule="evenodd">
        <g id="weixin" fill="#FFFFFF" fill-rule="nonzero">
            <path d="M7.83622544,8.72532118e-15 C7.87003125,0.00980678294 7.90383705,0.0220652618 7.93764286,0.0245169577 C8.26121271,0.0661957857 8.58961196,0.0882610475 8.90835241,0.152005137 C9.29953388,0.228007705 9.68830064,0.318720448 10.0674086,0.441305236 C10.5551781,0.598213764 11.0308741,0.791897729 11.4679348,1.06403596 C11.7866753,1.26262331 12.1054157,1.46611406 12.409668,1.68676668 C12.8225817,1.98832526 13.1847868,2.34872453 13.5131861,2.74589925 C13.8560735,3.16268753 14.1458376,3.60644446 14.3583312,4.101687 C14.512872,4.46453797 14.6287776,4.84209912 14.7567568,5.20249839 C14.440431,5.20249839 14.1554964,5.197595 13.8705617,5.20249839 C13.0519783,5.21720857 12.2672007,5.38637558 11.50657,5.69283755 C10.934286,5.92574864 10.4054667,6.23466231 9.93460008,6.62938533 C9.38404839,7.09030413 8.90835241,7.6272255 8.54856206,8.2622147 C8.26121271,8.76971572 8.04630438,9.30663709 7.92556936,9.8778822 C7.86278715,10.1720857 7.84346954,10.476096 7.81690784,10.7776545 C7.80241964,10.9443699 7.81690784,11.1135369 7.81449314,11.2802522 C7.80966374,11.7092989 7.89900765,12.1211838 8.00525447,12.5330687 C8.01249857,12.5600374 8.01491327,12.5894577 8.01974267,12.6286848 C7.6044142,12.6703637 7.19632984,12.6826221 6.78824547,12.6335882 C6.51779903,12.6017162 6.24493789,12.5722958 5.97690614,12.5281653 C5.65092159,12.474228 5.32252234,12.4300975 5.00619659,12.3393847 C4.79853235,12.2780923 4.64882093,12.3540949 4.4846213,12.4399043 C4.02824293,12.6777188 3.57186456,12.9130815 3.11548618,13.1484443 C2.81364863,13.3029012 2.51181108,13.457358 2.18824123,13.6216216 C2.26309694,13.3911622 2.32829385,13.1827681 2.39590547,12.9768256 C2.56010509,12.4693246 2.72430472,11.9618236 2.89091905,11.4567743 C2.91506605,11.3807717 2.89574845,11.3488997 2.83055154,11.297414 C2.52629929,11.0571479 2.22446174,10.8119783 1.93711239,10.5520985 C1.53144273,10.1843442 1.17406707,9.76755589 0.877058921,9.3017337 C0.485877458,8.68880976 0.215431015,8.03420699 0.0826224933,7.31586014 C-0.0115508219,6.8181659 -0.0139655222,6.31556827 0.0198402834,5.82032573 C0.0633048904,5.17552974 0.234748618,4.55525072 0.514853863,3.96684373 C0.739420999,3.49366645 1.01469684,3.05481291 1.3479255,2.65028311 C1.73427756,2.17955753 2.17858243,1.78238281 2.67118131,1.43179032 C3.2386359,1.02726052 3.8495551,0.715895161 4.50393891,0.482984064 C4.99895249,0.30646197 5.50362487,0.171618703 6.02278545,0.102971222 C6.27391429,0.0686474811 6.52504313,0.0514856109 6.77617197,0.0245169577 C6.79307487,0.0220652621 6.80997778,0.00735508752 6.82688068,0 L7.83622544,0 L7.83622544,8.72532118e-15 Z M5.84168292,4.1041387 C5.85375642,3.50592493 5.43601326,3.16513922 4.91443797,3.18230109 C4.54981821,3.19455957 4.22141896,3.33185453 3.99926652,3.65302668 C3.89784911,3.80012842 3.8326522,3.97174713 3.8543845,4.14826922 C3.88577561,4.41060067 4.00409593,4.63370498 4.23107776,4.78325842 C4.53291531,4.98429747 4.85889986,5.07746191 5.21386082,4.98184578 C5.61953049,4.87151947 5.85617112,4.52583037 5.84168292,4.1041387 L5.84168292,4.1041387 Z M10.9680918,4.09678361 C10.98258,3.51818341 10.5600075,3.1798494 10.0432616,3.18230109 C9.79696216,3.18230109 9.56515092,3.26565875 9.36473079,3.41521219 C8.98803753,3.6971572 8.8407408,4.14336583 9.14740775,4.58221937 C9.37680429,4.9107466 9.94184418,5.09462378 10.3475138,4.98184578 C10.7459394,4.86906777 10.9946536,4.48415154 10.9680918,4.09678361 Z" id=""></path>
            <path d="M21,11.1478353 C20.9827363,11.2659111 20.9605402,11.383987 20.948209,11.5020628 C20.9112154,11.8562902 20.805167,12.1908384 20.6695238,12.5180068 C20.4426298,13.0690273 20.1146199,13.55609 19.7224877,14.0013342 C19.3648829,14.4096798 18.975217,14.7811266 18.5411588,15.1058351 C18.4795028,15.1525734 18.430178,15.1993118 18.4671716,15.3075479 C18.5978823,15.701134 18.7113293,16.0996399 18.8297088,16.4956859 C18.8790336,16.6629599 18.9258922,16.8326939 18.9826157,17.027027 C18.903696,16.9901283 18.8395738,16.9655292 18.780384,16.9335503 C18.3339946,16.690019 17.8851389,16.4464876 17.4387495,16.2004963 C17.3129712,16.1316188 17.1822605,16.067661 17.0688135,15.9864839 C16.9331703,15.8905473 16.8073921,15.9692645 16.6840801,15.9914037 C16.2968804,16.0652011 15.9146132,16.1783571 15.5249473,16.2324752 C15.1673425,16.2816734 14.7998727,16.3013527 14.4398017,16.2865933 C13.692531,16.2521545 12.9600577,16.1217791 12.2547131,15.8561085 C11.606092,15.6125771 11.0092619,15.2878686 10.4666891,14.854924 C9.96604238,14.4564181 9.54924783,13.9890347 9.21383919,13.4478538 C8.90309295,12.9435717 8.68853008,12.399931 8.59481296,11.8120118 C8.5602856,11.6004593 8.52822448,11.3864469 8.51835952,11.1724345 C8.48876464,10.5180976 8.59481296,9.88590004 8.83403823,9.27830157 C9.01900623,8.8059983 9.26809647,8.36813382 9.59610639,7.97946759 C9.75641198,7.78759439 9.9241163,7.5981811 10.1041518,7.42352728 C10.4666891,7.07421966 10.8760849,6.78640986 11.3175419,6.53795866 C11.8650472,6.23046956 12.4446135,6.01153731 13.0513086,5.87132228 C13.3373924,5.80490463 13.630875,5.75570638 13.9218913,5.72864734 C14.2770298,5.69420856 14.6371009,5.66960943 14.9947057,5.67698917 C15.5348122,5.68928873 16.0699863,5.77292577 16.5928292,5.91806062 C17.0712797,6.05335583 17.5324666,6.23538938 17.9739236,6.46662119 C18.3931844,6.68555343 18.7828503,6.94876411 19.1453875,7.25625321 C19.581912,7.62770005 19.9592467,8.05080506 20.2650605,8.53294798 C20.5659418,9.00771116 20.7854371,9.51937303 20.8939517,10.0728534 C20.9334115,10.2794861 20.948209,10.4910386 20.9753376,10.7001312 C20.9802701,10.7296501 20.9926013,10.761629 21,10.791148 L21,11.1478353 L21,11.1478353 Z M12.7750897,10.0408746 C12.9970513,10.0531741 13.1943505,9.97937673 13.3620548,9.84900135 C13.62101,9.64974841 13.7615857,9.31766017 13.5198942,8.99049177 C13.3669873,8.78139917 13.1548907,8.69284231 12.9181316,8.6338044 C12.511202,8.53294798 12.0352177,8.91669438 12.0253528,9.33487956 C12.017954,9.65466823 12.4125524,10.0925327 12.7750897,10.0408746 Z M16.8024596,10.0408746 C17.0540161,10.0679336 17.382026,9.91049917 17.5423316,9.69156693 C17.6385149,9.56119155 17.6977047,9.4185166 17.6631773,9.24386279 C17.566994,8.75925996 16.8641156,8.45423077 16.4349898,8.729741 C16.1957645,8.8822556 16.0403914,9.09626802 16.0576551,9.37423817 C16.077385,9.72600571 16.4497873,10.085153 16.8024596,10.0408746 L16.8024596,10.0408746 Z" id=""></path>
        </g>
    </g>
</svg>