<?xml version="1.0" encoding="UTF-8"?>
<svg width="28px" height="20px" viewBox="0 0 28 20" version="1.1" xmlns="http://www.w3.org/2000/svg" xmlns:xlink="http://www.w3.org/1999/xlink">
    <!-- Generator: Sketch 54.1 (76490) - https://sketchapp.com -->
    <title>discord(1)</title>
    <desc>Created with Sketch.</desc>
    <g id="1" stroke="none" stroke-width="1" fill="none" fill-rule="evenodd">
        <g id="-3" transform="translate(-759.000000, -9078.000000)" fill="#FFFFFF" fill-rule="nonzero">
            <g id="discord(1)" transform="translate(759.000000, 9078.000000)">
                <path d="M20.5504588,19.5732228 C20.5504588,19.5732228 19.6513762,18.529375 19.0091744,17.6160083 C22.0917431,16.7026415 23.2477065,14.8759081 23.2477065,14.8759081 C22.2201835,15.5283129 21.3211009,15.9197558 20.5504588,16.3111987 C19.3944954,16.8331225 18.2385322,17.0940845 17.0825688,17.3550464 C14.7706422,17.7464893 12.7155964,17.6160083 10.9174312,17.3550464 C9.50458714,17.0940845 8.34862386,16.7026415 7.4495413,16.3111987 C6.93577982,16.0502368 6.29357799,15.7892748 5.65137615,15.5283129 C5.52293578,15.5283129 5.52293578,15.397832 5.39449543,15.397832 C5.39449543,15.397832 5.26605506,15.397832 5.26605506,15.397832 C4.88073395,15.1368701 4.62385322,15.006389 4.62385322,15.006389 C4.62385322,15.006389 5.77981652,16.8331225 8.73394497,17.7464893 C7.96330277,18.659856 7.19266056,19.7037037 7.19266056,19.7037037 C1.9266055,19.5732228 0,16.1807177 0,16.1807177 C0,8.61282189 3.46788991,2.48021665 3.46788991,2.48021665 C6.93577982,-0.129402607 10.146789,0.00107835505 10.146789,0.00107835505 L10.4036698,0.26204028 C6.16513762,1.30588798 4.23853211,3.26310242 4.23853211,3.26310242 C4.23853211,3.26310242 4.75229358,3.0021405 5.65137615,2.6106976 C8.2201835,1.56684991 10.146789,1.17540702 11.0458715,1.17540702 C11.174312,1.17540702 11.3027523,1.17540702 11.4311927,1.17540702 C12.8440367,1.04492606 14.5137615,0.914445093 16.1834863,1.17540702 C18.4954129,1.43636894 20.8073395,2.08877376 23.3761468,3.39358339 C23.3761468,3.39358339 21.4495413,1.56684991 17.46789,0.392521243 L17.853211,0.00107835505 C17.853211,0.00107835505 21.0642202,-0.129402607 24.5321102,2.48021665 C24.5321102,2.48021665 28,8.61282189 28,16.1807177 C27.8715596,16.0502368 25.8165138,19.4427418 20.5504588,19.5732228 Z M18.2385322,13.8320604 C19.5863096,13.8320604 20.6788991,12.6636941 20.6788991,11.2224411 C20.6788991,9.78118819 19.5863096,8.61282189 18.2385322,8.61282189 C16.8907547,8.61282189 15.7981651,9.78118819 15.7981651,11.2224411 C15.7981651,12.6636941 16.8907547,13.8320604 18.2385322,13.8320604 Z M9.50458714,13.8320604 C10.8523646,13.8320604 11.9449542,12.6636941 11.9449542,11.2224411 C11.9449542,9.78118819 10.8523646,8.61282189 9.50458714,8.61282189 C8.1568097,8.61282189 7.06422019,9.78118819 7.06422019,11.2224411 C7.06422019,12.6636941 8.1568097,13.8320604 9.50458714,13.8320604 Z" id=""></path>
            </g>
        </g>
    </g>
</svg>