<?xml version="1.0" encoding="UTF-8"?>
<svg width="24px" height="16px" viewBox="0 0 24 16" version="1.1" xmlns="http://www.w3.org/2000/svg" xmlns:xlink="http://www.w3.org/1999/xlink">
    <!-- Generator: Sketch 54.1 (76490) - https://sketchapp.com -->
    <title>youxiang-4</title>
    <desc>Created with Sketch.</desc>
    <g id="页面1" stroke="none" stroke-width="1" fill="none" fill-rule="evenodd">
        <g id="画板复制-3" transform="translate(-688.000000, -9081.000000)" fill="#FFFFFF" fill-rule="nonzero">
            <g id="youxiang-4" transform="translate(688.000000, 9081.000000)">
                <path d="M12,8.88888889 L23.1111111,0.033215164 C23.0496795,0.0229951135 22.9962607,0 22.9348291,0 L1.06517094,0 C1.00373932,0 0.950320513,0.0229951135 0.888888889,0.033215164 L12,8.88888889 Z M24,1.18058635 C24,1.07809805 23.9703903,0.983493471 23.9380888,0.888888889 L16,7.34827954 L23.948856,15.1111111 C23.9703903,15.032274 23.9973082,14.9586926 23.9973082,14.8719718 L23.9973082,1.18058635 L24,1.18058635 Z M0.0618903465,0.888888889 C0.0322906155,0.983493471 0,1.07547015 0,1.18058635 L0,14.8719718 C0,14.9586926 0.0295997309,15.032274 0.0511268079,15.1111111 L8,7.34827954 L0.0618903465,0.888888889 Z" id="形状"></path>
                <path d="M15.2036218,8 L12.3146533,10.4192256 C12.224373,10.4966622 12.1128503,10.5340454 11.9986723,10.5340454 C11.8871497,10.5340454 11.7729717,10.4966622 11.6826914,10.4192256 L8.79372287,8 L0.888888889,15.9519359 C0.965892646,15.9732977 1.0428964,16 1.12786607,16 L22.8694786,16 C22.9544483,16 23.0314521,15.9706275 23.1111111,15.9519359 L15.2036218,8 Z" id="路径"></path>
            </g>
        </g>
    </g>
</svg>