<?xml version="1.0" encoding="UTF-8"?>
<svg width="19px" height="19px" viewBox="0 0 19 19" version="1.1" xmlns="http://www.w3.org/2000/svg" xmlns:xlink="http://www.w3.org/1999/xlink">
    <!-- Generator: Sketch 54.1 (76490) - https://sketchapp.com -->
    <title>形状</title>
    <desc>Created with Sketch.</desc>
    <g id="页面1" stroke="none" stroke-width="1" fill="none" fill-rule="evenodd">
        <g id="画板复制-3" transform="translate(-332.000000, -9078.000000)" fill="#FFFFFF" fill-rule="nonzero">
            <g id="lingying-3" transform="translate(332.000000, 9078.000000)">
                <path d="M4.13556483,19 L0.0597299526,19 L0.0597299526,5.41131159 L4.13540164,5.41131159 L4.13540164,19 L4.13556483,19 Z M19,19 L14.9241651,19 L14.9241651,11.7845905 C14.9241651,9.92073791 14.2650141,8.95877061 12.9462224,8.95877061 C11.867493,8.95877061 11.2081787,9.49983629 10.9083866,10.5218856 L10.9083866,18.9998363 L6.8327149,18.9998363 C6.8327149,18.9998363 6.89277125,6.79401678 6.8327149,5.41131159 L10.254621,5.41131159 L10.2490724,8.11696738 L10.3089655,8.11696738 C11.1481224,6.73409847 12.466914,5.8322132 14.324744,5.8322132 C15.7032656,5.8322132 16.8422147,6.19303279 17.6812083,7.21524583 C18.5203652,8.17721312 18.9998368,9.5 18.9998368,11.3036068 L18.9998368,19 L19,19 L19,19 Z M4.19545798,2.04426235 C4.19545798,3.18663944 3.23635161,4.0885247 2.09772899,4.0885247 C0.958779977,4.0885247 0,3.18663944 0,2.04426235 C0,0.901885264 0.958779977,0 2.09772899,0 C3.23635161,0 4.19545798,0.901885264 4.19545798,2.04426235 Z" id="形状"></path>
            </g>
        </g>
    </g>
</svg>