<?xml version="1.0" encoding="UTF-8"?>
<svg width="168px" height="52px" viewBox="0 0 168 52" version="1.1" xmlns="http://www.w3.org/2000/svg" xmlns:xlink="http://www.w3.org/1999/xlink">
    <!-- Generator: Sketch 54.1 (76490) - https://sketchapp.com -->
    <title>编组 13复制</title>
    <desc>Created with Sketch.</desc>
    <defs>
        <polygon id="path-1" points="0.8835 0.1796 25.8175 0.1796 25.8175 35 0.8835 35"></polygon>
    </defs>
    <g id="页面1" stroke="none" stroke-width="1" fill="none" fill-rule="evenodd">
        <g id="编组-13复制" transform="translate(0.000000, -1.000000)">
            <g id="编组">
                <g transform="translate(0.000000, 0.616300)">
                    <polygon id="Fill-1" fill="#E6007A" points="44.2004 44.5378 22.1054 44.5378 11.2314 33.6258 22.2254 22.6108"></polygon>
                    <polygon id="Fill-3" fill="#E6007A" points="44.155 0.633 22.225 22.611 11.207 11.614 22.225 0.633"></polygon>
                    <polygon id="Fill-5" fill="#AB005B" points="11.2072 11.6145 22.2252 22.6105 11.2312 33.6255 0.2982 22.6565 0.2982 22.4905"></polygon>
                    <polygon id="Fill-7" fill="#E6007A" points="11.2316 33.6257 0.2976 44.5837 0.2976 22.6567"></polygon>
                    <polygon id="Fill-9" fill="#E6007A" points="11.2072 11.6145 0.2982 22.4905 0.2982 22.6565 0.2492 22.6085 0.2492 0.6805"></polygon>
                </g>
                <g transform="translate(85.000000, 17.616300)">
                    <mask id="mask-2" fill="white">
                        <use xlink:href="#path-1"></use>
                    </mask>
                    <g id="Clip-12"></g>
                    <path d="M19.7985,14.7956 C18.8855,17.0526 17.2195,21.0286 16.3595,22.9636 C15.8225,24.1996 15.1775,25.5966 14.4785,27.1016 C13.4035,29.4656 12.6515,31.1316 10.7715,35.0006 L2.2805,35.0006 C3.6775,33.6026 4.1615,32.9586 5.0215,31.7756 C6.3645,29.8416 7.3325,28.1216 9.6425,23.3396 L0.8835,0.1796 L9.5885,0.1796 L13.9415,12.7536 L14.0485,12.7536 L18.7235,0.1796 L25.8175,0.1796 L19.7985,14.7956 Z" id="Fill-11" fill="#FFFFFF" mask="url(#mask-2)"></path>
                </g>
                <polygon id="Fill-13" fill="#FFFFFF" points="114.2 41.3323 122.367 41.3323 122.367 2.8573 114.2 2.8573"></polygon>
                <polygon id="Fill-15" fill="#FFFFFF" points="129.137 41.3323 137.304 41.3323 137.304 16.1513 129.137 16.1513"></polygon>
                <path d="M159.2814,41.3323 L159.2814,28.7583 C159.2814,26.1793 157.9914,24.5663 155.8424,24.5663 C153.6924,24.5663 152.4034,26.1793 152.4034,28.7583 L152.4034,41.3323 L144.2354,41.3323 L144.2354,16.7963 L152.0274,16.7963 L152.0274,21.2893 C154.6064,18.4403 156.9704,17.1513 159.7114,17.1513 C164.3864,17.1513 167.4494,20.5903 167.4494,25.6953 L167.4494,41.3323 L159.2814,41.3323 Z" id="Fill-16" fill="#FFFFFF"></path>
                <path d="M137.7809,7.3352 C137.7809,9.8812 135.7179,11.9442 133.1719,11.9442 C130.6259,11.9442 128.5619,9.8812 128.5619,7.3352 C128.5619,4.7902 130.6259,2.7262 133.1719,2.7262 C135.7179,2.7262 137.7809,4.7902 137.7809,7.3352" id="Fill-20" fill="#E6007A"></path>
            </g>
            <polygon id="路径-9" fill="#FFFFFF" points="53.1094 3.5027 62.1364 3.5027 62.1364 21.0041504 74.7643 3.5027 85.4573 3.5027 71.5934 21.9337 86.8014 41.3319 75.5704 41.3323 62.1364 24.0229492 62.1364 41.3323 53.1094 41.3319"></polygon>
        </g>
    </g>
</svg>