<?xml version="1.0" encoding="UTF-8"?>
<svg width="227px" height="36px" viewBox="0 0 227 36" version="1.1" xmlns="http://www.w3.org/2000/svg" xmlns:xlink="http://www.w3.org/1999/xlink">
    <title>0chain Text Logo White</title>
    <g id="1" stroke="none" stroke-width="1" fill="none" fill-rule="evenodd">
        <g id="" transform="translate(-778.000000, -618.000000)" fill="#FFFFFF" fill-rule="nonzero">
            <g id="0chain-Text-Logo-White" transform="translate(778.000000, 618.000000)">
                <path d="M71.7533105,29.891542 C71.5688271,29.7202272 71.3181803,29.6251871 71.057727,29.6277912 C70.7854048,29.6381447 70.5283446,29.7477474 70.341923,29.9329886 C69.5926388,30.5775382 68.7997145,31.1766054 67.9680421,31.7264941 C67.1811917,32.2425314 66.3347363,32.674767 65.4445299,33.0151053 C64.4712392,33.3824694 63.4584702,33.6515264 62.4235946,33.8176613 C61.166265,34.0139144 59.8929055,34.1072115 58.6181058,34.0964836 C56.5091959,34.1134152 54.4174644,33.7420816 52.4630006,33.0038017 C50.6098233,32.2926068 48.9434013,31.2168391 47.5777397,29.8500955 C46.1472526,28.384555 45.0470941,26.6663736 44.3424676,24.7973834 C43.5217677,22.610229 43.1206756,20.3055544 43.1575492,17.9888445 C43.1298102,15.6939205 43.5406234,13.412709 44.3707762,11.2518951 C45.0943141,9.37356952 46.218193,7.65102023 47.6747979,6.18787941 C49.0751221,4.80485866 50.7766162,3.71674655 52.6652051,2.99649453 C54.721997,2.22920977 56.9203271,1.84517625 59.1357493,1.86613389 C60.2825041,1.85474312 61.4278994,1.94304257 62.5570495,2.12988471 C63.4555066,2.2806884 64.33885,2.50124972 65.1978404,2.78926175 C65.8651098,3.0093035 66.5083358,3.28813203 67.1187832,3.62196075 C67.6647354,3.93469386 68.1298057,4.22105189 68.4897298,4.47726697 C68.8496538,4.73348205 69.173181,4.96708991 69.3915619,5.14041188 C69.669134,5.39853034 70.0329209,5.56068958 70.4228048,5.60009187 C70.7398555,5.59552917 71.0374747,5.45688365 71.2316229,5.22330499 L71.3650778,5.02737582 L71.2316229,4.12685517 C70.4127807,3.48203409 69.5524884,2.8843452 68.6555375,2.33711749 C67.7922802,1.81126436 66.8718709,1.37175772 65.9096003,1.02589915 C64.9055924,0.66870587 63.8648359,0.408612022 62.803739,0.249718174 C61.5887903,0.0758357657 60.3608718,-0.00732196044 59.1317052,0.00103883324 C56.6117722,-0.0243593672 54.1114595,0.416190433 51.7755053,1.2971857 C49.5962927,2.13484616 47.6332569,3.39482191 46.0167209,4.993465 C44.3833846,6.64609822 43.122376,8.58714618 42.3082903,10.7017862 C41.4154563,13.0440384 40.9732621,15.5147101 41.0020491,18.0001481 C40.9659103,20.5365133 41.4080364,23.0590927 42.3082903,25.4529926 C43.1085398,27.5594232 44.357566,29.4933939 45.9803241,31.1387066 C47.5487257,32.7013426 49.458735,33.9322523 51.5813889,34.7483249 C53.8135795,35.5950676 56.2040587,36.0202727 58.6140617,35.9992574 C60.0473965,36.0043973 61.4778,35.8781943 62.8846208,35.6224705 C64.1082308,35.3999305 65.3046056,35.0628817 66.4555524,34.6164495 C67.5106554,34.1984697 68.5162924,33.6794855 69.4562673,33.0678554 C70.360459,32.4781342 71.2112211,31.8203205 72,31.1010279 L71.9757355,30.0723997 L71.7533105,29.891542 Z" id=""></path>
                <polygon id="" points="114.682833 0 113.960515 0.696405648 113.960515 16.2719298 91.039485 16.2719298 91.039485 0.696405648 90.3171674 0 89.7223176 0 89 0.696405648 89 34.2998502 89.7223176 35 90.3171674 35 91.039485 34.2998502 91.039485 18.2001498 113.960515 18.2001498 113.960515 34.2998502 114.682833 35 115.277682 35 116 34.2998502 116 0.696405648 115.277682 0"></polygon>
                <path d="M145.751162,0 L145.248838,0 L144.579073,0.43052132 L130,34.0299026 L130.669765,34.9995115 L131.059163,34.9995115 C131.525786,35.0134032 131.946051,34.7298118 132.091069,34.30319 L145.486371,3.36929729 L158.897249,34.2994464 C159.02704,34.7154148 159.426828,34.9991051 159.878533,34.9957678 L160.326341,34.9957678 L161,34.0261589 L146.420927,0.43052132 L145.751162,0 Z" id=""></path>
                <polygon id="" points="177.354167 0 177 0.696405648 177 34.2998502 177.354167 35 177.645833 35 178 34.2998502 178 0.696405648 177.645833 0"></polygon>
                <path d="M226.285408,0 L225.790987,0 L225.06867,0.696570622 L225.06867,31.1061377 L201.869528,0.490645211 C201.661443,0.179048998 201.302187,-0.0063895347 200.919313,0 L200.722318,0 L200,0.696570622 L200,34.2998536 L200.722318,35 L201.220601,35 L201.939056,34.2998536 L201.939056,3.77421949 L225.269528,34.5394759 C225.45875,34.8233492 225.782248,34.9963039 226.130901,35 L226.277682,35 L227,34.2998536 L227,0.696570622 L226.285408,0 Z" id=""></path>
                <path d="M22.2252723,4.50199333 C21.1329975,3.05953927 19.7009066,1.89636409 18.050697,1.11131295 C14.8539021,-0.37043765 11.1460979,-0.37043765 7.94930304,1.11131295 C6.29794296,1.89623483 4.86457001,3.05937834 3.77087666,4.50199333 C2.50800288,6.19538547 1.57221178,8.10036321 1.00964927,10.1229879 C0.294678778,12.7005747 -0.0437224414,15.3641933 0.00451628892,18.0345755 C-0.0421598437,20.6974358 0.296233121,23.3533793 1.00964927,25.9235585 C1.57098094,27.9450087 2.50832905,29.8479442 3.77472774,31.5370182 C4.86906192,32.9733436 6.30274659,34.1289841 7.95315413,34.905094 C11.1522479,36.3649687 14.8477521,36.3649687 18.0468459,34.905094 C19.695933,34.1269641 21.129164,32.9716893 22.2252723,31.5370182 C23.4894142,29.8466189 24.4265533,27.9441078 24.9903507,25.9235585 C25.7033109,23.3532914 26.0416957,20.6974115 25.9954837,18.0345755 C26.0437224,15.3641933 25.7053212,12.7005747 24.9903507,10.1229879 C24.4265311,8.10012781 23.4894336,6.19514735 22.2252723,4.50199333 L22.2252723,4.50199333 Z M12.9826701,33.9934774 C11.5447054,33.9987636 10.124132,33.6857885 8.82735024,33.0778941 C7.60115572,32.4871724 6.52299159,31.63952 5.66946118,30.5951625 L21.254799,6.81895825 C21.9707875,8.04697724 22.5258588,9.35830878 22.9069142,10.7220081 C23.5445101,13.101799 23.8451337,15.555953 23.8003657,18.0157383 C23.845414,20.4742965 23.5447829,22.9272437 22.9069142,25.3057012 C22.4342545,27.086698 21.6329053,28.7682123 20.5423485,30.2673968 C19.6562494,31.459461 18.4881529,32.423793 17.13799,33.0778941 C15.8470448,33.6868056 14.4312243,33.9998943 12.9980745,33.9934774 L12.9826701,33.9934774 Z M3.03146849,25.3057012 C2.39239719,22.9274023 2.09047153,20.4744653 2.13416586,18.0157383 C2.09050816,15.5557722 2.39243033,13.1015959 3.03146849,10.7220081 C3.51061168,8.93573844 4.31982879,7.25031658 5.41914071,5.74901022 C8.11180485,2.16037391 13.0411773,0.966691689 17.1341389,2.91214097 C18.2581902,3.46082394 19.2545374,4.23032579 20.0609629,5.17259456 L4.51413591,28.9073572 C3.88082628,27.7661873 3.38335508,26.5577436 3.03146849,25.3057012 Z" id=""></path>
            </g>
        </g>
    </g>
</svg>