<?xml version="1.0" encoding="UTF-8"?>
<svg width="315px" height="30px" viewBox="0 0 315 30" version="1.1" xmlns="http://www.w3.org/2000/svg" xmlns:xlink="http://www.w3.org/1999/xlink">
    <title>5d2cd13d358ee96e1f17ec65_New PM</title>
    <defs>
        <filter id="filter-1">
            <feColorMatrix in="SourceGraphic" type="matrix" values="0 0 0 0 1.000000 0 0 0 0 1.000000 0 0 0 0 1.000000 0 0 0 1.000000 0"></feColorMatrix>
        </filter>
    </defs>
    <g id="1" stroke="none" stroke-width="1" fill="none" fill-rule="evenodd">
        <g id="5d2cd13d358ee96e1f17ec65_New-PM" transform="translate(-358.000000, -746.000000)" filter="url(#filter-1)">
            <g transform="translate(358.000000, 746.000000)">
                <path d="M6.42647059,14.6705882 L11.5,14.6705882 C14.7132353,14.6705882 16.5735294,12.7941176 16.5735294,10.2352941 C16.5735294,7.33529412 14.5441176,5.8 11.3308824,5.8 L0,5.8 L0,0 L11.8382353,0 C18.7720588,0 23,4.09411765 23,10.0647059 C23,16.8882353 17.7573529,20.3 11.3308824,20.3 L6.42647059,20.3 L6.42647059,29 L0,29 L0,14.8411765 L6.42647059,14.6705882 Z" id="Shape" fill="#1348E4" fill-rule="nonzero"></path>
                <path d="M37.0003804,15.0846825 C36.9718071,11.0188112 38.5538465,7.1158592 41.3828749,4.27289993 C44.2119033,1.42994066 48.0445858,-0.108492704 52,0.0112008613 C55.9371336,-0.145989394 59.7657831,1.35682133 62.598154,4.17115852 C65.430525,6.98549571 67.0205819,10.8668904 66.9996196,14.9153175 C67.0281929,18.9811888 65.4461535,22.8841408 62.6171251,25.7271001 C59.7880967,28.5700593 55.9554142,30.1084927 52,29.9887991 C48.0628664,30.1459894 44.2342169,28.6431787 41.401846,25.8288415 C38.569475,23.0145043 36.9794181,19.1331096 37.0003804,15.0846825 L37.0003804,15.0846825 Z M60.4063802,15.0846825 C60.4913552,12.6921295 59.6265104,10.3667986 58.0102884,8.64224716 C56.3940664,6.91769569 54.1652204,5.94197719 51.835169,5.93897197 C49.5473475,5.93716623 47.3576333,6.89354752 45.7713023,8.58743368 C44.1849713,10.2813198 43.3390696,12.5663729 43.4287888,14.9153175 C43.3713253,17.3000046 44.2452616,19.6091008 45.8555919,21.3273656 C47.4659221,23.0456304 49.6786362,24.0300714 52,24.0610255 C54.3027131,24.1126555 56.5213887,23.1718269 58.1184249,21.4665098 C59.7154611,19.7611926 60.545124,17.4470015 60.4063802,15.0846825 Z" id="Shape-2" fill="#1348E4" fill-rule="nonzero"></path>
                <polygon id="Shape-3" fill="#1348E4" fill-rule="nonzero" points="85 0 91.4354839 0 91.4354839 23.2339181 106 23.2339181 106 29 85 29"></polygon>
                <polygon id="Shape-4" fill="#1348E4" fill-rule="nonzero" points="128.870588 17.6374269 118 0 125.247059 0 132 11.7017544 138.917647 0 146 0 135.129412 17.4678363 135.129412 29 128.870588 29"></polygon>
                <polygon id="Shape-5" fill="#1348E4" fill-rule="nonzero" points="163 0 169.674419 0 177 12.3081395 184.325581 0 191 0 191 29 184.976744 29 184.976744 9.94767442 177.162791 22.255814 177 22.255814 169.186047 9.94767442 169.186047 28.6627907 163.162791 28.6627907 163.162791 0"></polygon>
                <polygon id="Shape-6" fill="#1348E4" fill-rule="nonzero" points="225.52459 17.0982659 221.754098 7.71098266 217.983607 17.0982659 215.852459 22.6300578 213.229508 29 207 29 219.131148 0 224.868852 0 237 29 230.606557 29 227.983607 22.6300578"></polygon>
                <polygon id="Shape-7" fill="#1348E4" fill-rule="nonzero" points="258.788732 5.90116279 250 5.90116279 250 0 274 0 274 5.90116279 265.211268 5.90116279 265.211268 29 258.788732 29"></polygon>
                <polygon id="Shape-8" fill="#1348E4" fill-rule="nonzero" points="291 0 297.246575 0 297.246575 11.4651163 308.753425 11.4651163 308.753425 0 315 0 315 29 308.753425 29 308.753425 17.3662791 297.246575 17.3662791 297.246575 29 291 29"></polygon>
            </g>
        </g>
    </g>
</svg>