<?xml version="1.0" encoding="UTF-8"?>
<svg width="320px" height="70px" viewBox="0 0 320 70" version="1.1" xmlns="http://www.w3.org/2000/svg" xmlns:xlink="http://www.w3.org/1999/xlink">
    <title> 3</title>
    <g id="1" stroke="none" stroke-width="1" fill="none" fill-rule="evenodd">
        <g id="" transform="translate(-355.000000, -861.000000)">
            <g id="-3" transform="translate(356.000000, 862.000000)">
                <polygon id="" fill="#FFFFFF" fill-rule="nonzero" points="121 49 102 49 102 23 120.794595 23 120.794595 29.8713904 109.360189 29.8713904 109.360189 32.1743338 118.32973 32.1743338 118.32973 38.4884157 109.360189 38.4884157 109.360189 42.1284982 121 42.1284982"></polygon>
                <path d="M144,31.4816667 L144,58 L135.996612,58 L135.996612,48.4444444 C134.808038,50.1977778 133.025177,51.0741667 130.648313,51.0741667 C128.170173,51.0741667 126.109087,50.1236111 124.465623,48.2222222 C122.821874,46.3211111 122,43.9261111 122,41.0372222 C122,38.1483333 122.821874,35.7533333 124.465623,33.8519444 C126.109087,31.9508333 128.170173,31 130.648313,31 C133.025177,31 134.808038,31.8766667 135.996612,33.6297222 L135.996612,31.4816667 L144,31.4816667 Z M136.110406,43.1852778 L136.110406,38.8519444 C135.553955,37.9383333 134.555132,37.4816667 133.113936,37.4816667 C132.152949,37.4816667 131.368911,37.8272222 130.762107,38.5186111 C130.180337,39.1852778 129.889594,40.0247222 129.889594,41.0372222 C129.889594,42.0494444 130.180337,42.9013889 130.762107,43.5927778 C131.368911,44.2594444 132.152949,44.5927778 133.113936,44.5927778 C134.529813,44.5927778 135.528636,44.1236111 136.110406,43.1852778 Z" id="" fill="#FFFFFF" fill-rule="nonzero"></path>
                <path d="M159.499965,40.3855075 L159.499965,29 L167,29 L167,47.5331689 L159.499965,47.5331689 L159.499965,45.1626473 C159.071391,45.8571023 158.345227,46.5036082 157.321472,47.1021649 C156.345129,47.7007216 155.273695,48 154.107172,48 C152.130912,48 150.619119,47.3656161 149.571257,46.0963095 C148.523663,44.8272723 148,43.0434548 148,40.744857 L148,29 L155.53566,29 L155.53566,39.1285923 C155.53566,39.8707272 155.702268,40.4334567 156.035752,40.8165114 C156.392807,41.1998355 156.84522,41.3913629 157.392723,41.3913629 C158.226298,41.3913629 158.928623,41.055988 159.499965,40.3855075 Z" id="" fill="#FFFFFF" fill-rule="nonzero"></path>
                <path d="M181.559397,50 L174.406788,50 L174.406788,30.7413499 L181.559397,30.7413499 L181.559397,50 Z M180.847518,28.5764313 C180.079197,29.4226362 179.129854,29.8455988 178,29.8455988 C176.870146,29.8455988 175.920803,29.4226362 175.152482,28.5764313 C174.384161,27.7305063 174,26.6729601 174,25.4041006 C174,24.1848713 174.384161,23.1522941 175.152482,22.3062851 C175.943431,21.435419 176.892519,21 178,21 C179.084853,21 180.022755,21.435419 180.813704,22.3062851 C181.604653,23.1771512 182,24.2097564 182,25.4041006 C182,26.648187 181.615839,27.7055932 180.847518,28.5764313 Z" id="" fill="#FFFFFF" fill-rule="nonzero"></path>
                <path d="M189.915896,49 C185.971775,49 184,47.0915695 184,43.274982 L184,23 L192.015344,23 L192.015344,41.5610046 C192.015344,41.9015027 192.116967,42.1566712 192.320499,42.3267835 C192.524032,42.4968959 192.765923,42.581952 193.045888,42.581952 C193.376521,42.581952 193.694558,42.5212367 194,42.399806 L194,48.2705956 C192.931383,48.7568652 191.56992,49 189.915896,49 Z" id="" fill="#FFFFFF" fill-rule="nonzero"></path>
                <path d="M205.559411,50 L198.406775,50 L198.406775,30.7413499 L205.559411,30.7413499 L205.559411,50 Z M204.847555,28.5764313 C204.079003,29.4226362 203.129946,29.8455988 202.000127,29.8455988 C200.870054,29.8455988 199.920997,29.4226362 199.1527,28.5764313 C198.384148,27.7305063 198,26.6729601 198,25.4041006 C198,24.1848713 198.384148,23.1522941 199.1527,22.3062851 C199.943623,21.435419 200.892681,21 202.000127,21 C203.084692,21 204.022563,21.435419 204.813487,22.3062851 C205.604411,23.1771512 206,24.2097564 206,25.4041006 C206,26.648187 205.615852,27.7055932 204.847555,28.5764313 Z" id="" fill="#FFFFFF" fill-rule="nonzero"></path>
                <path d="M209,48.5260375 L209,23 L217.003569,23 L217.003569,31.8246724 C218.191843,30.0986614 219.974681,29.2355191 222.351799,29.2355191 C224.829907,29.2355191 226.890682,30.1716839 228.534409,32.0434664 C230.178136,33.9155224 231,36.2735745 231,39.1178963 C231,41.9622181 230.178136,44.3202702 228.534409,46.1920527 C226.890682,48.0641087 224.829907,49 222.351799,49 C219.974681,49 218.191843,48.1371312 217.003569,46.4108467 L217.003569,48.5260375 L209,48.5260375 Z M216.889777,37.0027055 L216.889777,41.2691881 C217.445936,42.1687049 218.444746,42.6186 219.886208,42.6186 C220.847182,42.6186 221.618408,42.290409 222.199886,41.6340271 C222.806967,40.9533043 223.110223,40.1145029 223.110223,39.1178963 C223.110223,38.1210162 222.806967,37.2945219 222.199886,36.63814 C221.618408,35.9574172 220.847182,35.6171926 219.886208,35.6171926 C218.470065,35.6171926 217.471255,36.0791214 216.889777,37.0027055 Z" id="" fill="#FFFFFF" fill-rule="nonzero"></path>
                <path d="M241.842105,48 L235,48 L235,29.4670939 L241.842105,29.4670939 L241.842105,32.4121558 C242.167838,31.6460572 242.830301,30.891811 243.829492,30.1494173 C244.850432,29.3833187 245.936372,29 247.087556,29 C247.456786,29 247.761015,29.0360961 248,29.1077495 L248,36.2192134 C247.261297,36.0276888 246.577086,35.9320611 245.947368,35.9320611 C244.122726,35.9320611 242.754305,36.4708084 241.842105,37.5483029 L241.842105,48 Z" id="" fill="#FFFFFF" fill-rule="nonzero"></path>
                <path d="M260.559411,50 L253.406775,50 L253.406775,30.7413499 L260.559411,30.7413499 L260.559411,50 Z M259.847555,28.5764313 C259.079258,29.4226362 258.129946,29.8455988 257.000127,29.8455988 C255.870054,29.8455988 254.920997,29.4226362 254.1527,28.5764313 C253.384403,27.7305063 253,26.6729601 253,25.4041006 C253,24.1848713 253.384403,23.1522941 254.1527,22.3062851 C254.943623,21.435419 255.892681,21 257.000127,21 C258.084692,21 259.022563,21.435419 259.813487,22.3062851 C260.604665,23.1771512 261,24.2097564 261,25.4041006 C261,26.648187 260.615852,27.7055932 259.847555,28.5764313 Z" id="" fill="#FFFFFF" fill-rule="nonzero"></path>
                <path d="M274.499746,40.3855075 L274.499746,29 L282,29 L282,47.5331689 L274.499746,47.5331689 L274.499746,45.1626473 C274.071191,45.8571023 273.345058,46.5036082 272.321078,47.1021649 C271.345043,47.7007216 270.273655,48 269.106913,48 C267.131005,48 265.619009,47.3656161 264.571459,46.0963095 C263.523909,44.8272723 263,43.0434548 263,40.744857 L263,29 L270.53561,29 L270.53561,39.1285923 C270.53561,39.8707272 270.70221,40.4334567 271.035412,40.8165114 C271.39272,41.1998355 271.845114,41.3913629 272.392593,41.3913629 C273.225866,41.3913629 273.928161,41.055988 274.499746,40.3855075 Z" id="" fill="#FFFFFF" fill-rule="nonzero"></path>
                <path d="M293.5,48 L285,48 L285,29.4670939 L293.5,29.4670939 L293.5,31.8734086 C294.013036,31.1073099 294.835714,30.436839 295.968036,29.8619956 C297.100357,29.2874217 298.290357,29 299.528929,29 C302.14875,29 304.009643,29.9937193 305.114643,31.981158 C305.682321,31.1191624 306.571786,30.4128647 307.786071,29.8619956 C309.027679,29.2874217 310.336071,29 311.714286,29 C313.736071,29 315.463393,29.6346443 316.893214,30.9036635 C318.29875,32.1487084 319,33.992571 319,36.4347123 L319,48 L310.4575,48 L310.4575,37.8354552 C310.4575,36.3269629 309.838214,35.5727167 308.596607,35.5727167 C307.597857,35.5727167 306.829821,35.9320611 306.289464,36.6502112 L306.289464,48 L297.75,48 L297.75,37.8354552 C297.75,36.3269629 297.127679,35.5727167 295.886071,35.5727167 C294.914643,35.5727167 294.119286,35.9560354 293.5,36.722134 L293.5,48 Z" id="" fill="#FFFFFF" fill-rule="nonzero"></path>
                <polygon id="" fill="#FFFFFF" fill-rule="nonzero" points="59.0133445 20 48 26.4864531 59.0133445 33 70 26.4864531"></polygon>
                <polygon id="" fill="#FFFFFF" fill-rule="nonzero" points="10.9866951 20 0 26.4864531 10.9866951 33 22 26.4864531"></polygon>
                <polygon id="" fill="#1792FF" fill-rule="nonzero" points="22 55.3598548 22 68 34 61.6401452 34 49"></polygon>
                <polygon id="" fill="#A4D8FF" fill-rule="nonzero" points="22 28.3599251 22 41 10 34.6399163 10 22"></polygon>
                <polygon id="" fill="#A4D8FF" fill-rule="nonzero" points="22 41.3688038 22 54 10 47.6576667 10 35"></polygon>
                <polygon id="" fill="#A4D8FF" fill-rule="nonzero" points="12 33.3598548 12 46 0 39.6401452 0 27"></polygon>
                <polygon id="" fill="#A4D8FF" fill-rule="nonzero" points="34 49.3422449 34 62 22 55.6577551 22 43"></polygon>
                <polygon id="" fill="#A4D8FF" fill-rule="nonzero" points="48 28.3599779 48 41 36 34.6399428 36 22"></polygon>
                <polygon id="" fill="#A4D8FF" fill-rule="nonzero" points="22 12.3599162 22 25 10 18.6400045 10 6"></polygon>
                <polygon id="" fill="#A4D8FF" fill-rule="nonzero" points="48 55.3422449 48 68 36 61.6577551 36 49"></polygon>
                <polygon id="" fill="#A4D8FF" fill-rule="nonzero" points="22 55.3422449 22 68 10 61.6577551 10 49"></polygon>
                <polygon id="" fill="#1792FF" fill-rule="nonzero" points="47 28.3599779 47 41 59 34.6399428 59 22"></polygon>
                <polygon id="" fill="#1792FF" fill-rule="nonzero" points="47 12.3599162 47 25 59 18.6400045 59 6"></polygon>
                <polygon id="" fill="#1792FF" fill-rule="nonzero" points="22 28.3599779 22 41 34 34.6399428 34 22"></polygon>
                <polygon id="" fill="#1792FF" fill-rule="nonzero" points="47 41.3598548 47 54 59 47.6401452 59 35"></polygon>
                <polygon id="" fill="#1792FF" fill-rule="nonzero" points="59 33.3598548 59 46 71 39.6401452 71 27"></polygon>
                <polygon id="" fill="#1792FF" fill-rule="nonzero" points="36 49.3422449 36 62 48 55.6577551 48 43"></polygon>
                <polygon id="" fill="#1792FF" fill-rule="nonzero" points="47 55.3600306 47 68 59 61.6399694 59 49"></polygon>
                <polygon id="" fill="#FFFFFF" fill-rule="nonzero" points="23.0133313 14 12 20.4864934 23.0133313 27 34 20.4864934"></polygon>
                <polygon id="" fill="#FFFFFF" fill-rule="nonzero" points="35.0000265 7 24 13.5135738 35.0000265 20 46 13.5135738"></polygon>
                <polygon id="" fill="#FFFFFF" fill-rule="nonzero" points="35.0000265 35 24 41.4998649 35.0000265 48 46 41.4998649"></polygon>
                <polygon id="" fill="#FFFFFF" fill-rule="nonzero" points="48.9866555 0 38 6.48642618 48.9866555 13 60 6.48642618"></polygon>
                <polygon id="" fill="#FFFFFF" fill-rule="nonzero" points="23.0133313 0 12 6.48642618 23.0133313 13 34 6.48642618"></polygon>
                <polygon id="" fill="#FFFFFF" fill-rule="nonzero" points="48.9866555 14 38 20.5135738 48.9866555 27 60 20.5135738"></polygon>
                <polygon id="" stroke="#001423" stroke-linejoin="round" points="11.9903006 6.82282745 11.9903006 20.4399551 0 27.2627826 0 40.8228558 11.9903006 47.6455698 11.9903006 61.2056431 24.0096417 68 35.9998558 61.2056431 47.9900987 68 60.0094687 61.2056431 60.0094687 47.6455698 72 40.8228558 72 27.2627826 60.0094687 20.4399551 60.0094687 6.82282745 47.9900987 0 35.9998558 6.82282745 24.0096417 0"></polygon>
                <line x1="0" y1="25" x2="12" y2="34" id="" stroke="#FFFFFF" stroke-linecap="round" stroke-linejoin="round"></line>
                <line x1="23" y1="56" x2="23" y2="68" id="" stroke="#FFFFFF" stroke-linecap="round" stroke-linejoin="round"></line>
                <line x1="23" y1="41" x2="23" y2="54" id="" stroke="#001423" stroke-linejoin="round"></line>
                <line x1="12" y1="21" x2="12" y2="46" id="" stroke="#001423" stroke-linejoin="round"></line>
                <line x1="47" y1="54" x2="47" y2="41" id="" stroke="#001423" stroke-linejoin="round"></line>
                <line x1="47" y1="68" x2="47" y2="55" id="" stroke="#FFFFFF" stroke-linecap="round" stroke-linejoin="round"></line>
                <line x1="71" y1="25" x2="59" y2="34" id="" stroke="#FFFFFF" stroke-linecap="round" stroke-linejoin="round"></line>
                <line x1="59" y1="6" x2="47" y2="15" id="" stroke="#FFFFFF" stroke-linecap="round" stroke-linejoin="round"></line>
                <line x1="10" y1="6" x2="22" y2="15" id="" stroke="#FFFFFF" stroke-linecap="round" stroke-linejoin="round"></line>
                <line x1="59" y1="47" x2="59" y2="22" id="" stroke="#001423" stroke-linejoin="round"></line>
                <line x1="10" y1="34" x2="22" y2="43" id="" stroke="#001423" stroke-linejoin="round"></line>
                <line x1="12" y1="48" x2="34" y2="61" id="" stroke="#001423" stroke-linejoin="round"></line>
                <line x1="60" y1="48" x2="38" y2="61" id="" stroke="#001423" stroke-linejoin="round"></line>
                <line x1="59" y1="34" x2="47" y2="43" id="" stroke="#001423" stroke-linejoin="round"></line>
                <line x1="48" y1="12" x2="36" y2="21" id="" stroke="#001423" stroke-linejoin="round"></line>
                <line x1="37" y1="7" x2="61" y2="20" id="" stroke="#001423" stroke-linejoin="round"></line>
                <polyline id="" stroke="#001423" stroke-linejoin="round" points="46 37 35.09395 30.7238044 35.09395 18.3027579 24 12"></polyline>
                <line x1="34" y1="7" x2="12" y2="20" id="" stroke="#001423" stroke-linejoin="round"></line>
                <line x1="34" y1="34" x2="22" y2="43" id="" stroke="#001423" stroke-linejoin="round"></line>
                <polyline id="" stroke="#FFFFFF" stroke-linecap="round" stroke-linejoin="round" points="12 19 23.0133313 26.2871343 23.0133313 40.5601964 34 47.7269379 34 62"></polyline>
                <polyline id="" stroke="#FFFFFF" stroke-linecap="round" stroke-linejoin="round" points="60 21 48.9866555 27.3417256 48.9866555 39.7630479 38 46"></polyline>
                <polyline id="" stroke="#FFFFFF" stroke-linecap="round" stroke-linejoin="round" points="24 28 35.0000265 19 46 28"></polyline>
            </g>
        </g>
    </g>
</svg>