<?xml version="1.0" encoding="UTF-8"?>
<svg width="163px" height="106px" viewBox="0 0 163 106" version="1.1" xmlns="http://www.w3.org/2000/svg" xmlns:xlink="http://www.w3.org/1999/xlink">
    <title>5fac3e348dbd59b4765788f6_white-logo</title>
    <g id="1" stroke="none" stroke-width="1" fill="none" fill-rule="evenodd">
        <g id="" transform="translate(-1412.000000, -668.000000)" fill-rule="nonzero">
            <g id="-4" transform="translate(348.000000, 304.000000)">
                <g id="5fac3e348dbd59b4765788f6_white-logo" transform="translate(1064.000000, 364.000000)">
                    <path d="M2,53 L2,72.8603101 L2,92.7207653 L5.60994146,92.7207653 L9.22035172,92.7207653 L9.22035172,92.164589 L9.22035172,91.6088479 L10.6842988,92.3037056 C11.4664916,92.7010365 12.7102387,93.1179512 13.4322797,93.2370489 C15.1972494,93.5548847 15.6585839,93.5548847 17.6442077,93.2370489 C24.2628073,92.1844628 29.0764142,86.1071414 29.0764142,78.8183886 C29.0764142,71.0330809 22.7582805,64.2411731 15.538002,64.2610469 C13.5323373,64.2610469 12.2489774,64.5785926 10.4238267,65.4922072 L9.22035172,66.1081499 L9.22035172,59.5541475 L9.22035172,53 L5.60994146,53 L2,53 Z M85.2343797,53 L85.2343797,59.4547785 L85.2343797,65.9091218 L84.7935695,65.6313238 C84.5328044,65.4724784 83.6101647,65.0953114 82.7276652,64.8172232 C80.6819775,64.1419492 77.7735674,64.0425802 75.9083644,64.5987565 C67.063446,67.2203575 62.8314332,77.428238 67.0835161,85.8688009 C69.0890635,89.84095 72.5789212,92.5419011 76.570239,93.2171751 C78.5558628,93.5547396 79.0168897,93.5551748 80.601404,93.2969604 C82.0253573,93.0784937 83.6097252,92.5024436 84.4721545,91.9066648 C85.1741694,91.4101099 85.2343797,91.4301287 85.2343797,92.1251315 L85.2343797,92.7207653 L88.8448047,92.7207653 L92.4547901,92.7207653 L92.4547901,72.8603101 L92.4547901,53 L88.8448047,53 L85.2343797,53 Z M139.192396,64.2758381 C136.906453,64.2778744 134.593554,64.7871949 132.427446,65.8299167 C125.568151,69.1465205 122.379492,77.2495189 125.187405,84.1808334 C127.072678,88.8281114 131.344684,92.3234343 136.258495,93.2171751 C139.166613,93.7334588 142.736604,93.4357869 145.604727,92.4030746 C147.068821,91.8866459 150.158009,90.1983882 150.578456,89.7018334 C150.758647,89.4833666 150.35871,88.9869568 148.612463,87.2590966 C146.667712,85.3326435 146.366953,85.1141767 146.045977,85.3326435 C145.223688,85.9284223 142.69661,87.0010273 141.633626,87.1797464 C139.848557,87.517456 137.301409,87.2991343 135.91745,86.6834817 C134.433286,86.0280814 132.828702,84.4389027 132.126687,82.9891306 L131.625373,81.897087 L142.776598,81.7978631 L153.928848,81.698204 L153.988912,79.1166407 C154.028466,77.15044 153.968402,76.2169516 153.707637,75.2437156 C152.964896,72.4831431 151.70209,70.3778257 149.595459,68.3718774 C146.737884,65.6783246 143.00235,64.2726521 139.192396,64.2758381 Z M108.898668,64.3203782 C107.807996,64.3303876 106.644954,64.4296116 105.852697,64.6181951 C100.65805,65.8098978 96.8272937,70.2787469 96.8072236,75.1444917 C96.7871535,78.600212 99.0131793,82.2146327 102.262342,84.0615906 L103.064854,84.4985241 L102.362693,84.8761263 C100.537483,85.8493623 100.397432,88.291954 102.10222,89.3248114 L102.723808,89.7018334 L101.941513,89.940319 C100.637834,90.3772525 98.892905,91.3105958 98.0706159,92.0453462 C96.8873576,93.0979323 96.0650685,94.9057229 95.9245776,96.732807 C95.5836785,101.22124 98.8729814,104.517825 104.890063,105.729256 C106.695056,106.086839 111.248044,106.086839 113.213598,105.749275 C117.26498,105.034253 120.09267,103.286519 121.556763,100.625316 C122.198714,99.4336131 122.238854,99.2746226 122.238854,97.3879171 C122.238854,95.6203093 122.178644,95.283035 121.677184,94.2701964 C120.253231,91.4102549 116.663315,89.4838018 111.709364,88.9276255 C108.981732,88.6298086 107.818397,88.1132348 107.938671,87.2989893 C108.039022,86.6237152 108.941298,86.1667629 111.007203,85.7497032 C116.482538,84.6573694 120.17295,81.2216679 120.915105,76.4948947 C121.155654,74.9258798 120.935322,72.8209977 120.413792,71.5499448 C120.253377,71.1925065 120.133249,70.8349232 120.133249,70.7951756 C120.133249,70.7355542 120.734767,70.6757877 121.496846,70.6360401 L122.840372,70.5767088 L122.840372,67.7962625 L122.840372,65.0158162 L117.525745,64.8965734 C114.256512,64.836952 111.950059,64.6978354 111.508809,64.5588638 C111.007496,64.390009 109.989193,64.3105138 108.898668,64.3203782 Z M45.5938334,64.3491009 C45.4511451,64.3491009 45.3068453,64.3528726 45.16152,64.3602709 C43.2361066,64.4397661 42.2132627,64.9164472 40.6688886,66.4059668 L39.525917,67.5178842 L39.4654137,66.2668502 L39.4054963,65.0158162 L35.8555747,64.9559047 L32.2854366,64.9164472 L32.2854366,78.8183886 L32.2854366,92.7207653 L35.895422,92.7207653 L39.5057004,92.7207653 L39.5057004,84.0816094 C39.5057004,75.7599992 39.5257705,75.4222897 39.92688,74.3299559 C40.4684804,72.8801839 41.7520893,71.5894023 42.9353477,71.2715665 C44.599996,70.834633 46.044166,71.3512068 47.8091649,73.0194456 L48.7114415,73.8734388 L49.7944958,72.2249287 C50.3762364,71.3113141 51.2587359,69.9610562 51.7399793,69.206432 L52.6226253,67.83572 L51.8201133,67.1407172 C49.6014124,65.2043997 47.7354768,64.3502614 45.5938334,64.3491009 Z M53.946521,64.9164472 L53.946521,78.8183886 L53.946521,92.7207653 L57.5563599,92.7207653 L61.1667849,92.7207653 L61.1667849,78.8183886 L61.1667849,64.9164472 L57.5563599,64.9164472 L53.946521,64.9164472 Z M108.955802,70.0878423 C111.123815,70.1110526 113.173311,71.5450126 113.835186,73.7942337 C114.97845,77.6471399 111.047196,81.2614155 107.21644,79.9108674 C106.033035,79.4938077 105.050624,78.5999219 104.38875,77.328869 C103.065,74.7668894 104.127692,71.7881403 106.79526,70.556835 C107.497128,70.2291349 108.233131,70.0800089 108.955802,70.0878423 Z M139.086625,70.3976995 C140.711133,70.3976995 141.071809,70.4774849 142.235144,71.0136423 C143.919863,71.8081592 145.183841,72.9400954 145.98606,74.4296151 C147.028974,76.3958158 147.651441,76.2369705 139.086625,76.2369705 C133.912049,76.2369705 131.565016,76.1773491 131.565016,76.0185037 C131.565016,75.9191347 131.805711,75.3031919 132.126687,74.6875393 C132.868695,73.1781459 134.353152,71.7485378 135.957737,71.0136423 C137.101001,70.4774849 137.46197,70.3976995 139.086625,70.3976995 Z M80.3273076,70.4417991 C81.5691649,70.4547098 82.8404681,70.7417919 84.0313443,71.3314781 L85.3345839,71.9670045 L85.3950872,78.5405906 L85.435374,85.1340505 L84.7935695,85.6902268 C83.1289212,87.0805225 80.3007916,87.6764464 78.1948935,87.1003963 C73.1205215,85.6704981 70.8940562,79.1958458 73.7220393,74.0321391 C75.0043298,71.7109661 77.5951338,70.4132214 80.3273076,70.4417991 Z M14.6919657,70.4515184 C15.3049395,70.4610926 15.8838967,70.5269518 16.3802294,70.656059 C17.6439147,70.9936234 19.2886394,72.1055409 20.0910049,73.158127 C21.2541931,74.6675204 21.6954429,76.0183586 21.8158636,78.3419977 C21.956208,81.1820654 21.2941869,83.2476351 19.7297427,84.9754953 C17.9647437,86.9019484 14.7157861,87.8351467 12.3290528,87.0805225 C11.1858322,86.7230842 10.2028209,86.2068006 9.58107191,85.6110217 L9.01985557,85.094593 L9.01985557,78.5999219 L9.01985557,72.0861023 L9.58107191,71.6886262 C10.7092473,70.8991866 12.8530296,70.4226506 14.6919657,70.4515184 Z M109.181993,94.3095089 C111.869632,94.3095089 113.474363,94.7068398 114.417073,95.6005806 C115.179152,96.2955834 115.4197,96.9908763 115.239215,97.9639672 C114.89817,99.6918274 113.253445,100.486054 109.703377,100.585423 C108.439838,100.625026 106.995961,100.565839 106.514571,100.466616 C105.271103,100.208401 103.887436,99.4735057 103.426116,98.8379793 C102.964796,98.2024528 102.884369,96.9311098 103.285479,96.2160882 C103.947353,94.9649091 105.993041,94.3095089 109.181993,94.3095089 Z" id="" fill="#FFFFFF"></path>
                    <path d="M31.4478235,0 L31.4478235,0.0013824799 C14.0675172,0.0757899786 0.00547301355,13.9319199 0.00563175925,31.011031 C0.00563175925,32.3345865 0,33.6866767 0,35 L16.8878659,34.9913531 C16.8878659,33.8208481 16.8875724,32.2620964 16.8874256,30.9238412 C16.8871321,22.8546782 23.2944938,16.3962925 31.4994863,16.3501756 C39.7049191,16.3958602 46.1127212,22.85439 46.1125744,30.9238412 C46.1122809,32.2620964 46.1121341,33.8208481 46.1121341,34.9913531 L63,35 C63,33.6866767 62.994276,32.3345865 62.994276,31.011031 C62.9944228,13.9319055 48.9324535,0.0757584174 31.5520297,0.0013824799 L31.5520297,0 C31.5347109,0 31.5173922,0.000868081742 31.4999266,0.000927272802 C31.4826078,0.000927272802 31.4652891,0 31.4478235,0 L31.4478235,0 Z" id="" fill="#2683BB"></path>
                    <path d="M78.4478968,0 L78.4478968,0.00142097303 C61.0675793,0.0758263491 47.0054305,13.9319131 47.0055772,31.0108992 C47.0055772,32.3345947 47,33.6866808 47,35 L63.8879052,34.991209 C63.8879052,33.8207077 63.8876117,32.2621049 63.8873182,30.9238538 C63.8871714,22.8547158 70.2945481,16.3963501 78.4995597,16.3502334 C86.7048648,16.3957737 93.1128286,22.8544276 93.1125351,30.9238538 C93.1123883,32.2621049 93.1120948,33.8207077 93.1120948,34.991209 L110,35 C110,33.6866808 109.994423,32.3345947 109.994423,31.0108992 C109.99457,13.9318987 95.9324207,0.075796085 78.5521032,0.00142097303 L78.5521032,0 C78.5346376,0 78.5174656,0.000946546742 78.5,0.000946546742 C78.4825344,0.000946546742 78.4653624,0 78.4478968,0 L78.4478968,0 Z" id="" fill="#56B5FB"></path>
                    <path d="M123.448263,1 L123.448263,1.00142097 C106.067596,1.07582614 92.0054305,14.93192 92.0055773,32.0110392 C92.0055773,33.3345919 92,34.6866794 92,36 L108.888102,35.991209 C108.888102,34.8207065 108.887808,33.2621021 108.887515,31.9238496 C108.887368,23.8547032 115.294819,17.3963308 123.499927,17.350214 C131.705327,17.3958985 138.113366,23.854415 138.113072,31.9238496 C138.112925,33.2621021 138.112632,34.8207065 138.112632,35.991209 L155,36 C155,34.6866794 154.995597,33.3345919 154.995597,32.0110392 C154.995597,14.9319056 140.932991,1.07579588 123.552471,1.00142097 L123.552471,1 C123.535005,1 123.517686,1.00094828 123.500367,1.00094828 C123.482901,1.00094828 123.465582,1 123.448263,1 L123.448263,1 Z" id="" fill="#7BE0FD"></path>
                    <path d="M55.0440498,10 C49.4343166,15.529453 46.0004694,22.9484345 46.0006259,31.105085 C46.0006259,31.1104075 46.0006259,31.1155862 46.0006259,31.1207648 C46.000313,32.4125485 46,33.8773853 46,34.9912251 L64,35 C64,33.8396963 64,32.3282517 63.9995306,31.0181989 C63.9995306,22.9041284 60.6018308,15.5201026 55.0440498,10 L55.0440498,10 Z" id="" fill="#0F78B9"></path>
                    <path d="M101.04405,11 C95.4343166,16.5294924 92.0004694,23.9486234 92.0004694,32.105582 C92.0004694,32.1107607 92.0004694,32.1159395 92.0004694,32.1212621 C92.000313,33.412928 92,34.8775065 92,35.9912249 L110,36 C110,34.8396729 110,33.3284856 109.999531,32.0186941 C109.999531,32.0184064 109.999531,32.0182626 109.999531,32.0181187 C109.999531,23.9040286 106.601674,16.5202857 101.04405,11 L101.04405,11 Z" id="" fill="#2AAAFA"></path>
                    <path d="M56.999926,60 C59.2091099,60 61,58.2091099 61,56.000074 C61,53.7908901 59.2091099,52 56.999926,52 C54.7908901,52 53,53.7908901 53,56.000074 C53,58.2091099 54.7908901,60 56.999926,60 Z" id="" fill="#FFFFFF"></path>
                    <path d="M158.99926,94 C161.208403,94 163,92.2091099 163,90.000074 C163,87.7908901 161.208403,86 158.99926,86 C156.790117,86 155,87.7908901 155,90.000074 C155,92.2091099 156.790117,94 158.99926,94 Z" id="" fill="#FFFFFF"></path>
                </g>
            </g>
        </g>
    </g>
</svg>