<?xml version="1.0" encoding="UTF-8"?>
<svg width="223px" height="51px" viewBox="0 0 223 51" version="1.1" xmlns="http://www.w3.org/2000/svg" xmlns:xlink="http://www.w3.org/1999/xlink">
    <title>Logo</title>
    <defs>
        <filter id="filter-1">
            <feColorMatrix in="SourceGraphic" type="matrix" values="0 0 0 0 1.000000 0 0 0 0 1.000000 0 0 0 0 1.000000 0 0 0 1.000000 0"></feColorMatrix>
        </filter>
    </defs>
    <g id="1" stroke="none" stroke-width="1" fill="none" fill-rule="evenodd">
        <g id="Logo" transform="translate(-777.000000, -319.000000)" filter="url(#filter-1)">
            <g transform="translate(777.000000, 319.000000)">
                <path d="M55.8022657,30.0117702 L45.6448751,39.7035309 C44.7843436,40.5246316 44.7851818,41.8593983 45.6465516,42.6793833 L53.4086032,50.0689704 C54.7315049,51.3103432 56.89415,51.3103432 58.2170517,50.0689704 L82.0078237,27.7460934 C83.3307254,26.5048799 83.3307254,24.475397 82.0078237,23.2341836 L58.2170517,0.930944774 C56.89415,-0.310314925 54.7315049,-0.310314925 53.4086032,0.930944774 L45.6465516,8.32062429 C44.7851818,9.14072088 44.7843436,10.4754238 45.6448751,11.2964288 L55.8022657,20.9882693 C58.4480691,23.4706962 58.4480691,27.5293432 55.8022657,30.0117702 Z" id="" fill="#0A6E5C" fill-rule="nonzero"></path>
                <path d="M27.1977225,30.0117702 L37.3551242,39.7035309 C38.2156567,40.5246316 38.2148184,41.8593983 37.3534477,42.6793833 L29.5913876,50.0689704 C28.2684845,51.3103432 26.105837,51.3103432 24.7829339,50.0689704 L0.992155993,27.7460934 C-0.330718664,26.5048799 -0.330718664,24.475397 0.992155993,23.2341836 L24.7829339,0.930944774 C26.105837,-0.310314925 28.2684845,-0.310314925 29.5913876,0.930944774 L37.3534477,8.32062429 C38.2148184,9.14072088 38.2156567,10.4754238 37.3551242,11.2964288 L27.1977225,20.9882693 C24.5519162,23.4706962 24.5519162,27.5293432 27.1977225,30.0117702 Z" id="" fill="#21BF73" fill-rule="nonzero"></path>
                <path d="M28.7789043,26.8801 C27.7403652,25.8417265 27.7403652,24.1582288 28.7789043,23.1198553 L39.119933,12.7787923 C40.1583096,11.7404026 41.8418123,11.7404026 42.8801889,12.7787923 L53.2212175,23.1198553 C54.2595942,24.1582288 54.2595942,25.8417265 53.2212175,26.8801 L42.8801889,37.221098 C41.8418123,38.259634 40.1583096,38.259634 39.119933,37.221098 L28.7789043,26.8801 Z" id="" fill="#21BF73" fill-rule="nonzero"></path>
                <path d="M126,41 L118.587277,41 L114.49915,30.6812702 C114.169674,29.8684816 113.660543,29.3024239 112.971594,28.9832554 C112.312805,28.6639286 111.474198,28.5041862 110.455936,28.5041862 L105.918508,28.5041862 L105.918508,41 L99,41 L99,10 L113.241239,10 C116.954977,10 119.770277,10.7837028 121.68714,12.3511242 C123.603839,13.9185456 124.562271,16.1680831 124.562271,19.0997842 C124.562271,21.16062 123.99331,22.9312306 122.855224,24.4116161 C121.746971,25.8918435 120.144667,26.951363 118.04815,27.5898583 C119.935015,27.9672301 121.297834,29.2299863 122.136441,31.3778105 L126,41 Z M112.207897,23.3229951 C114.214588,23.3229951 115.68215,23.0038265 116.610584,22.365173 C117.539019,21.6975761 118.003236,20.6671582 118.003236,19.2739193 C118.003236,17.8806804 117.539019,16.8646551 116.610584,16.226144 C115.68215,15.5585312 114.214588,15.2247328 112.207897,15.2247328 L105.828517,15.2247328 L105.828517,23.3229951 L112.207897,23.3229951 Z" id="" fill="#FFFFFF" fill-rule="nonzero"></path>
                <path d="M153,17.5663325 L153,39.6514025 L146.290817,39.6514025 L146.290817,36.384428 C145.600446,37.5169349 144.624858,38.4027492 143.364052,39.0415546 C142.103246,39.6805182 140.677323,40 139.086283,40 C137.10504,40 135.348882,39.535256 133.817974,38.6060846 C132.316968,37.6767549 131.131245,36.3553123 130.260806,34.6420733 C129.420269,32.8995604 129,30.8957971 129,28.6306252 C129,26.3654533 129.420269,24.3471321 130.260806,22.5756617 C131.131245,20.8041912 132.332083,19.4393915 133.862991,18.4811044 C135.393899,17.4937015 137.135106,17 139.086283,17 C140.677323,17 142.103246,17.3338814 143.364052,18.0018025 C144.624858,18.6697236 145.600446,19.5700958 146.290817,20.7026027 L146.290817,17.5663325 L153,17.5663325 Z M141.067526,34.9905126 C142.7486,34.9905126 144.039472,34.438738 144.939977,33.3351886 C145.840482,32.2316393 146.290817,30.6343885 146.290817,28.5435945 C146.290817,26.4526422 145.840482,24.8553914 144.939977,23.7518421 C144.039472,22.6193353 142.7486,22.0530027 141.067526,22.0530027 C139.386451,22.0530027 138.080628,22.6337349 137.150057,23.7953574 C136.219485,24.95698 135.7542,26.5687887 135.7542,28.6306252 C135.7542,30.6924617 136.204535,32.2751546 137.10504,33.378704 C138.035611,34.4532958 139.356549,34.9905126 141.067526,34.9905126 Z" id="" fill="#FFFFFF" fill-rule="nonzero"></path>
                <path d="M185.474938,17 C188.01309,17 189.893557,17.7813522 191.119533,19.3442172 C192.372645,20.8775184 193,23.2365175 193,26.4212144 L193,40 L186.394419,40 L186.394419,26.6423003 C186.394419,25.0794353 186.145393,23.9589027 185.650533,23.2807025 C185.154077,22.5730992 184.338356,22.2192975 183.200179,22.2192975 C181.859268,22.2192975 180.823255,22.6910331 180.093736,23.6346648 C179.364217,24.5781359 179.000255,25.9051331 179.000255,27.6153352 L179.000255,40 L172.393078,40 L172.393078,26.6423003 C172.393078,25.1089991 172.131282,23.9884665 171.606092,23.2807025 C171.111232,22.5730992 170.308282,22.2192975 169.200434,22.2192975 C167.857927,22.2192975 166.809144,22.6910331 166.049294,23.6346648 C165.321372,24.5781359 164.955814,25.9051331 164.955814,27.6153352 L164.955814,40 L158.350073,40 L158.350073,23.9884665 C158.350073,21.6000643 158.233382,19.4621511 158,17.5750482 L164.211928,17.5750482 L164.606219,20.9364853 C165.276675,19.6686157 166.210523,18.6954201 167.406168,18.0172199 C168.630547,17.3390198 170.032118,17 171.606092,17 C174.902497,17 177.089458,18.3858035 178.168572,21.1577319 C178.898091,19.8897016 179.903774,18.8871029 181.187217,18.1499357 C182.499393,17.3833655 183.929698,17 185.474938,17 Z" id="" fill="#FFFFFF" fill-rule="nonzero"></path>
                <path d="M213.081056,17 C215.000539,17 216.713209,17.512105 218.219066,18.5363151 C219.723307,19.5303242 220.889861,20.9459992 221.717113,22.7835043 C222.573448,24.6210094 223,26.7145671 223,29.0641773 C223,31.4137874 222.58799,33.4922446 221.760738,35.2997128 C220.935102,37.0768158 219.768547,38.4475174 218.26269,39.4114895 C216.756833,40.3752975 215.029622,40.8573656 213.081056,40.8573656 C211.517032,40.8573656 210.114582,40.5259746 208.87532,39.8631924 C207.634442,39.2005745 206.690858,38.2817398 206.041336,37.1070168 L206.041336,51 L199.353844,51 L199.353844,24.1391055 C199.353844,21.6992204 199.235896,19.5152236 199,17.5874436 L205.288407,17.5874436 L205.731116,21.3829298 C206.320856,20.0273287 207.266056,18.9579811 208.5651,18.174723 C209.893227,17.3916291 211.399084,17 213.081056,17 Z M211.17773,35.6611407 C212.830618,35.6611407 214.100579,35.1038982 214.985997,33.9892491 C215.871415,32.844563 216.314124,31.2028724 216.314124,29.0641773 C216.314124,26.9254822 215.856874,25.2535905 214.940757,24.0486664 C214.055339,22.8437423 212.801535,22.2413623 211.17773,22.2413623 C209.524842,22.2413623 208.240339,22.8288059 207.324222,24.0035289 C206.438804,25.148215 205.996095,26.8050062 205.996095,28.9739023 C205.996095,31.1426344 206.438804,32.7994255 207.324222,33.9441116 C208.240339,35.0887977 209.524842,35.6611407 211.17773,35.6611407 Z" id="" fill="#FFFFFF" fill-rule="nonzero"></path>
            </g>
        </g>
    </g>
</svg>