<?xml version="1.0" encoding="UTF-8"?>
<svg width="324px" height="63px" viewBox="0 0 324 63" version="1.1" xmlns="http://www.w3.org/2000/svg" xmlns:xlink="http://www.w3.org/1999/xlink">
    <title>600f55bddbe2354c1e36e200_Dark</title>
    <g id="1" stroke="none" stroke-width="1" fill="none" fill-rule="evenodd">
        <g id="" transform="translate(-356.000000, -711.000000)" fill-rule="nonzero">
            <g id="-4" transform="translate(348.000000, 304.000000)">
                <g id="600f55bddbe2354c1e36e200_Dark" transform="translate(8.000000, 407.000000)">
                    <polygon id="" fill="#5751FC" points="25.8825301 0 0 31.3228125 25.9314759 63 52 31.3917187"></polygon>
                    <polygon id="" fill="#3033BE" points="26.2671274 63 0 31.0059672 33 23"></polygon>
                    <polygon id="" fill="#51A0FC" points="26 0 52 32 32.6656672 23.8519912"></polygon>
                    <path d="M75.0198447,16 L87.015962,16 C90.0720449,16 92.6816221,17.0720196 94.824849,19.1958321 C96.9482312,21.3398713 98,23.9491266 98,27.0741649 C98,30.1992032 96.9482312,32.7983451 94.824849,34.9524977 C92.6716997,37.0965369 90.0720449,38.1483298 87.015962,38.1483298 L81.350302,38.1483298 L81.350302,49 L75,49 L75,16 L75.0198447,16 Z M81.3701467,32.0600674 L87.0358067,32.0600674 C88.3753236,32.0600674 89.4965487,31.5948514 90.3796376,30.6441925 C91.2627265,29.6733068 91.7191544,28.4698131 91.7191544,27.0640515 C91.7191544,25.6279497 91.2627265,24.4345694 90.3796376,23.4839105 C89.4965487,22.5332516 88.3753236,22.0680356 87.0358067,22.0680356 L81.3701467,22.0680356 L81.3701467,32.0600674 Z" id="" fill="#FFFFFF"></path>
                    <path d="M118.514076,46.4039009 C116.222766,48.8013003 113.373317,50 109.97552,50 C106.577723,50 103.747858,48.8013003 101.436965,46.4039009 C99.1554468,44.0065014 98,41.0402275 98,37.5152377 C98,34.0105648 99.1554468,31.0544494 101.436965,28.6468915 C103.767442,26.2190167 106.597307,25 109.97552,25 C113.324357,25 116.173807,26.2291751 118.514076,28.6468915 C120.844553,31.0747664 122,34.0308818 122,37.5152377 C122,41.0199106 120.844553,43.976026 118.514076,46.4039009 Z M105.588739,42.1881349 C106.76377,43.41731 108.232558,44.0268184 109.995104,44.0268184 C111.738066,44.0268184 113.226438,43.41731 114.401469,42.1881349 C115.576499,40.9589598 116.173807,39.3945551 116.173807,37.5152377 C116.173807,35.6359204 115.586291,34.0613572 114.401469,32.8423405 C113.226438,31.6131654 111.75765,31.003657 109.995104,31.003657 C108.252142,31.003657 106.76377,31.6131654 105.588739,32.8423405 C104.433293,34.1121495 103.865361,35.6562373 103.865361,37.5152377 C103.865361,39.3742381 104.443084,40.9488013 105.588739,42.1881349 Z" id="" fill="#FFFFFF"></path>
                    <polygon id="" fill="#FFFFFF" points="130 48 124 48 124 14 130 14"></polygon>
                    <polygon id="" fill="#FFFFFF" points="143.581461 37.0726548 153 49 146.157303 49 137.869382 38.2967505 137.869382 49 132 49 132 16 137.869382 16 137.869382 35.7979767 145.705056 25.4386879 152.714888 25.4386879"></polygon>
                    <path d="M169.981855,28.4541089 L169.981855,25.6605587 L176,25.6605587 L176,49.3397063 L169.981855,49.3397063 L169.981855,46.5461561 C168.1875,48.8521048 165.637097,50 162.360887,50 C159.256048,50 156.564516,48.801313 154.326613,46.403939 C152.118952,43.9760899 151,41.0200058 151,37.51537 C151,34.0412094 152.118952,31.0952837 154.326613,28.6471178 C156.554435,26.2192687 159.256048,25.000265 162.360887,25.000265 C165.637097,24.9799483 168.1875,26.1278435 169.981855,28.4541089 Z M158.862903,42.3202764 C160.072581,43.5494385 161.635081,44.1589404 163.469758,44.1589404 C165.334677,44.1589404 166.866935,43.5494385 168.086694,42.3202764 C169.326613,41.0504809 169.951613,39.4556177 169.951613,37.4950533 C169.951613,35.534489 169.326613,33.9396257 168.086694,32.720622 C166.877016,31.4508264 165.314516,30.8311662 163.469758,30.8311662 C161.604839,30.8311662 160.072581,31.4711432 158.862903,32.720622 C157.653226,33.9497841 157.048387,35.534489 157.048387,37.4950533 C157.048387,39.4556177 157.653226,41.0707976 158.862903,42.3202764 Z" id="" fill="#FFFFFF"></path>
                    <path d="M202.42099,25 C205.013493,25 207.091454,25.8438677 208.664768,27.5215571 C210.208396,29.2193386 211,31.4897447 211,34.3528673 L211,48.9598158 L207.972114,48.9598158 L207.972114,34.3729594 C207.972114,32.3838426 207.467466,30.8166597 206.468066,29.7015488 C205.468666,28.5864378 204.113043,28.0037673 202.391304,28.0037673 C200.412294,28.0037673 198.838981,28.6868983 197.72084,30.0129761 C196.602699,31.3491 196.028786,33.3583089 196.028786,35.9903725 L196.028786,48.9698619 L192.981109,48.9698619 L192.981109,34.3729594 C192.981109,32.3436584 192.506147,30.7865216 191.546327,29.7015488 C190.596402,28.5864378 189.28036,28.0037673 187.617991,28.0037673 C185.688456,28.0037673 184.095352,28.6868983 182.848576,30.0632064 C181.631484,31.4395144 181.017991,33.4286312 181.017991,36.0205107 L181.017991,49 L178,49 L178,25.5826706 L181.027886,25.5826706 L181.027886,28.9983257 C182.670465,26.3361239 185.005697,25.0301381 188.033583,25.0301381 C191.368216,25.0301381 193.683658,26.4566764 194.989805,29.2896609 C196.652174,26.4265383 199.125937,25 202.42099,25 Z" id="" fill="#FFFFFF"></path>
                    <path d="M234.986459,30.0278906 L234.986459,25.5500015 L238,25.5500015 L238,48.4402639 L234.986459,48.4402639 L234.986459,43.9623747 C232.87895,47.3207916 229.816167,49 225.768568,49 C222.51867,49 219.721789,47.841248 217.417316,45.5237439 C215.142388,43.2062399 214,40.3682794 214,37.0000424 C214,33.6318058 215.13254,30.7938454 217.417316,28.4763413 C219.741485,26.1588373 222.51867,25.0000424 225.768568,25.0000424 C229.826016,24.9902653 232.898646,26.6694738 234.986459,30.0278906 Z M219.623307,43.4320983 C221.356586,45.1604064 223.483792,46.0343804 226.004924,46.0343804 C228.526057,46.0343804 230.653262,45.1604064 232.386541,43.4320983 C234.119819,41.6350507 234.996307,39.4746656 234.996307,36.9705828 C234.996307,34.4370403 234.119819,32.306115 232.386541,30.558167 C230.653262,28.7807592 228.526057,27.9067853 226.004924,27.9067853 C223.483792,27.9067853 221.356586,28.7807592 219.623307,30.558167 C217.890029,32.2864751 217.013541,34.4370403 217.013541,36.9705828 C217.013541,39.5041254 217.870332,41.6252308 219.623307,43.4320983 Z" id="" fill="#FFFFFF"></path>
                    <path d="M242.947977,25.3687764 L242.947977,29.1147679 C244.315992,26.3780591 246.657033,25 250,25 L250,27.9016878 C247.861272,27.9016878 246.146435,28.5324895 244.874759,29.7940928 C243.603083,31.0362869 242.947977,32.9092827 242.947977,35.4130802 L242.947977,48 L240,48 L240,25.3687764 L242.947977,25.3687764 Z" id="" fill="#FFFFFF"></path>
                    <polygon id="" fill="#FFFFFF" points="259.051309 36.7362132 271 49 267.084447 49 255.94388 37.6360294 255.94388 48.9898897 253 48.9898897 253 16 255.94388 16 255.94388 35.8363971 266.555318 25.4329044 270.567076 25.4329044"></polygon>
                    <path d="M280.783347,25 C284.173747,25 286.850892,26.207362 288.873407,28.6220859 C290.964316,31.007362 292,33.8245399 292,37.0932515 C292,37.2306748 291.980459,37.7116564 291.902294,38.5165644 L272.028887,38.5165644 C272.331776,40.8134969 273.299065,42.6294479 274.920986,44.003681 C276.542906,45.3779141 278.594732,46.0650307 281.037383,46.0650307 C284.476636,46.0650307 286.919286,44.7595092 288.326253,42.1877301 L290.964316,43.7484663 C289.977485,45.407362 288.590059,46.6834356 286.850892,47.6257669 C285.131266,48.5484663 283.177145,49 281.017842,49 C277.471113,49 274.549703,47.8613497 272.341546,45.6134969 C270.104078,43.3656442 269,40.4797546 269,37.0245399 C269,33.5693252 270.104078,30.7325153 272.292693,28.4552147 C274.471538,26.1582822 277.324554,25 280.783347,25 Z M280.783347,27.9349693 C278.428632,27.9349693 276.45497,28.6417178 274.852591,30.0453988 C273.279524,31.4392638 272.361088,33.2846626 272.058199,35.5815951 L288.951572,35.5815951 C288.619371,33.1472393 287.700935,31.2723926 286.196262,29.9472393 C284.613424,28.592638 282.805862,27.9349693 280.783347,27.9349693 Z" id="" fill="#FFFFFF"></path>
                    <path d="M305.989719,24.3200786 L305.989719,27.1718214 L299.132282,27.1718214 L299.132282,40.7850395 C299.132282,42.0182255 299.379027,42.8949437 299.903358,43.4344627 C300.42769,43.9450788 301.167923,44.2244725 302.185744,44.243741 C303.203564,44.243741 304.457848,44.2244725 306,44.1473983 L306,46.7486502 C302.607265,47.2399978 300.088417,47.0087754 298.422892,46.0742516 C296.819054,45.1204592 295.996573,43.3573885 295.996573,40.7754052 L295.996573,27.1718214 L291,27.1718214 L291,24.2911758 L295.996573,24.2911758 L295.996573,18.905621 L299.142563,18 L299.142563,24.2911758 L306,24.2911758 L306,24.3200786 L305.989719,24.3200786 Z" id="" fill="#FFFFFF"></path>
                    <path d="M310.754902,31.5490357 C310.754902,33.1838326 312.833333,34.7496922 315.431373,35.4390644 C316.303922,35.6557243 316.892157,35.7935987 317.156863,35.8920804 C317.441176,35.9610176 317.960784,36.1284366 318.735294,36.3943373 C319.558824,36.6306935 320.107843,36.8473533 320.411765,37.0344686 C320.745098,37.2215839 321.186275,37.507181 321.784314,37.9109561 C322.352941,38.2654904 322.77451,38.6692655 323.009804,39.0533443 C323.245098,39.4078785 323.480392,39.9101354 323.696078,40.5207222 C323.911765,41.0919163 324,41.7320476 324,42.3918753 C324,44.3418137 323.22549,45.9569142 321.686275,47.1682396 C320.196078,48.3992614 318.235294,49 315.784314,49 C313.656863,49 311.843137,48.5272876 310.284314,47.5720148 C308.754902,46.5970455 307.637255,45.3167829 307,43.7213787 L309.54902,42.20476 C309.970588,43.396389 310.72549,44.3418137 311.813725,45.0508822 C312.921569,45.7205581 314.245098,46.0750923 315.754902,46.0750923 C317.284314,46.0750923 318.558824,45.7697989 319.529412,45.149364 C320.5,44.528929 320.990196,43.6327452 320.990196,42.3918753 C320.990196,40.6093558 319.431373,39.3093968 316.313725,38.5018465 C315.441176,38.2851867 314.852941,38.1473123 314.588235,38.0980714 C314.303922,37.9995897 313.764706,37.8321707 312.960784,37.5958145 C312.186275,37.3102175 311.617647,37.0935577 311.284314,36.9064423 C310.980392,36.719327 310.54902,36.4534263 309.960784,36.0791957 C309.392157,35.6754206 308.970588,35.2913418 308.735294,34.9368076 C308.5,34.5330324 308.264706,34.0603201 308.04902,33.4694296 C307.833333,32.8489947 307.745098,32.2088634 307.745098,31.5490357 C307.745098,29.6778826 308.480392,28.1317193 309.911765,26.8711531 C311.421569,25.6105868 313.284314,25 315.509804,25 C317.323529,25 318.931373,25.4037751 320.323529,26.2310217 C321.735294,27.0582684 322.803922,28.2006565 323.460784,29.6778826 L320.960784,31.1452606 C320.107843,29.0082068 318.294118,27.944604 315.509804,27.944604 C314.137255,27.944604 313.009804,28.2794419 312.107843,28.9195732 C311.196078,29.53016 310.754902,30.4066475 310.754902,31.5490357 Z" id="" fill="#FFFFFF"></path>
                </g>
            </g>
        </g>
    </g>
</svg>