<?xml version="1.0" encoding="UTF-8"?>
<svg width="232px" height="66px" viewBox="0 0 232 66" version="1.1" xmlns="http://www.w3.org/2000/svg" xmlns:xlink="http://www.w3.org/1999/xlink">
    <title>rio_logo.f3a04d67</title>
    <g id="1" stroke="none" stroke-width="1" fill="none" fill-rule="evenodd">
        <g id="" transform="translate(-773.000000, -462.000000)" fill-rule="nonzero">
            <g id="rio_logo.f3a04d67" transform="translate(773.000000, 462.000000)">
                <path d="M83.0997242,36.3912774 L90.0214875,51 L98,51 L90.0745645,35.3478103 C92.1349861,34.6173723 93.7202943,33.4173723 94.8297521,31.7478103 C95.9395784,30.1304016 96.5208458,28.1478103 96.5208458,25.7478103 C96.5208458,22.4608759 95.4640965,19.8521533 93.3505979,17.9217518 C91.2370993,15.9913138 88.3838393,15 84.8435265,15 L71,15 L71,51 L77.9217632,51 L77.9217632,36.3912774 L83.0997242,36.3912774 Z M77.9217632,30.7043431 L77.9217632,20.9478103 L84.4738301,20.9478103 C86.0587697,20.9478103 87.274013,21.4173723 88.2249768,22.2521533 C89.1232321,23.1391241 89.5990826,24.2869344 89.5990826,25.7478103 C89.5990826,27.3651826 89.1232321,28.6173723 88.2249768,29.4521533 C87.32709,30.2869344 86.0587697,30.7043431 84.4738301,30.7043431 L77.9217632,30.7043431 Z" id="" fill="#FFFFFF"></path>
                <path d="M102.111228,23.8695621 L102.111228,51 L108.94458,51 L108.94458,23.8695621 L102.111228,23.8695621 Z M102,15 L102,20.165219 L109,20.165219 L109,15 L102,15 Z" id="" fill="#FFFFFF"></path>
                <path d="M116.933114,49.2104855 C118.923846,51.1052847 121.595329,52 125.052436,52 C128.404671,52 131.076154,51.1052847 133.066886,49.2104855 C135.004999,47.3685541 136,44.473671 136,40.5262032 L136,35.4210758 C136,31.526329 135.004999,28.6842036 133.066886,26.7894778 C131.076154,24.9473996 128.404671,24 125.052436,24 C121.595329,24 118.923846,24.9473996 116.933114,26.7894778 C114.942748,28.6842036 114,31.526329 114,35.4210758 L114,40.5262032 C114,44.473671 114.942748,47.3685541 116.933114,49.2104855 Z M129.557161,40.4737024 C129.557161,44.3158016 128.038168,46.2106008 125.052436,46.2106008 C121.961832,46.2106008 120.442839,44.3158016 120.442839,40.4737024 L120.442839,35.5263343 C120.442839,31.736846 121.961832,29.7894726 125.052436,29.7894726 C128.038168,29.7894726 129.557161,31.736846 129.557161,35.5263343 L129.557161,40.4737024 Z" id="" fill="#FFFFFF"></path>
                <path d="M141,15 L141,51 L153.655737,51 C157.733335,51 160.963204,49.9041611 163.399273,47.6608031 C165.78215,45.4174451 167,41.7652554 167,36.6521533 L167,29.2956205 C167,24.234781 165.78215,20.5825913 163.452094,18.3391241 C161.122038,16.1478103 157.892169,15 153.867762,15 L141,15 Z M153.814571,45.0520442 L147.936978,45.0520442 L147.936978,20.9478103 L153.814571,20.9478103 C155.932602,20.9478103 157.468489,21.6782482 158.527505,23.034781 C159.533699,24.3912774 160.063022,26.634781 160.063022,29.6608395 L160.063022,36.5999636 C160.063022,39.5215334 159.533699,41.6608031 158.474683,43.0172267 C157.415298,44.3740143 155.879781,45.0520442 153.814571,45.0520442 Z" id="" fill="#FFFFFF"></path>
                <path d="M178.337314,39.9472265 L194,39.9472265 L194,36.3157911 C194,32.263175 192.969598,29.2105327 191.011583,27.1052899 C189.053926,25.0526581 186.374594,24 183.025697,24 C179.573653,24 176.894679,25.0526581 174.936664,27.1052899 C172.979008,29.1579218 172,32.2105274 172,36.3157911 L172,39.6314879 C172,43.8421936 172.979008,46.9999476 175.039812,49.0001154 C177.049222,50.9999161 179.779949,52 183.231993,52 C186.477742,52 189.053926,51.2106533 190.960188,49.6315927 C192.815056,48.0525322 193.794063,45.9998636 193.794063,43.3685856 L193.794063,43.1053476 L187.71444,43.1053476 L187.662686,43.263217 C187.559538,44.2633009 187.199059,45.0526476 186.477742,45.5791235 C185.756424,46.1052322 184.726022,46.3684702 183.489324,46.3684702 C181.840753,46.3684702 180.55266,45.9473629 179.676801,45.0526476 C178.749547,44.210433 178.337314,42.7367411 178.337314,40.6840725 L178.337314,39.9472265 Z M179.522258,30.8947415 C180.346724,30.0526371 181.479914,29.5789556 183.025697,29.5789556 C186.065509,29.5789556 187.611292,31.3158121 187.611292,34.7894883 L187.611292,35.4736867 L178.337314,35.4736867 L178.337314,35.3157806 C178.337314,33.2631855 178.697793,31.7894936 179.522258,30.8947415 Z" id="" fill="#FFFFFF"></path>
                <polygon id="" fill="#FFFFFF" points="205.879121 20.9478103 222 20.9478103 222 15 199 15 199 51 205.879121 51 205.879121 36.1304016 219.689377 36.1304016 219.689377 30.1825913 205.879121 30.1825913"></polygon>
                <path d="M225.111222,23.8695621 L225.111222,51 L231.944583,51 L231.944583,23.8695621 L225.111222,23.8695621 Z M225,15 L225,20.165219 L232,20.165219 L232,15 L225,15 Z" id="" fill="#FFFFFF"></path>
                <polygon id="" fill="#4A85F9" transform="translate(32.897970, 13.424125) rotate(-45.000000) translate(-32.897970, -13.424125) " points="24.0832233 4.60937759 41.7138979 4.60819696 41.7127173 22.2388716 24.0820426 22.2400523"></polygon>
                <polygon id="" fill="#4A85F9" transform="translate(32.897970, 53.259438) rotate(-45.000000) translate(-32.897970, -53.259438) " points="24.0832233 44.4446912 41.7138979 44.4435106 41.7127173 62.0741852 24.0820426 62.0753659"></polygon>
                <polygon id="" fill="#4A85F9" transform="translate(52.813956, 33.440025) rotate(-45.000000) translate(-52.813956, -33.440025) " points="43.9992093 24.6252777 61.629884 24.6240971 61.6287033 42.2547717 43.9980287 42.2559524"></polygon>
                <polygon id="" fill="#FFFFFF" points="37 32.4999649 45.5001754 24 54 32.4999649 45.5001754 41"></polygon>
                <polygon id="" fill="#4A85F9" transform="translate(12.984086, 33.440025) rotate(-45.000000) translate(-12.984086, -33.440025) " points="4.16933918 24.6252777 21.8000138 24.6240971 21.7988332 42.2547717 4.16815855 42.2559524"></polygon>
                <polygon id="" fill="#FFFFFF" points="12 32.4999649 20.5000175 24 29 32.4999649 20.5000175 41"></polygon>
                <polygon id="" fill="#FFFFFF" points="24 21.5000175 32.4999649 13 41 21.5000175 32.4999649 30"></polygon>
                <polygon id="" fill="#FFFFFF" points="24 45.4999825 32.4999649 37 41 45.4999825 32.4999649 54"></polygon>
            </g>
        </g>
    </g>
</svg>