<?xml version="1.0" encoding="UTF-8"?>
<svg width="199px" height="58px" viewBox="0 0 199 58" version="1.1" xmlns="http://www.w3.org/2000/svg" xmlns:xlink="http://www.w3.org/1999/xlink">
    <title>deficliq</title>
    <g id="1" stroke="none" stroke-width="1" fill="none" fill-rule="evenodd">
        <g id="" transform="translate(-1109.000000, -470.000000)" fill-rule="nonzero">
            <g id="deficliq" transform="translate(1109.000000, 470.000000)">
                <path d="M190.595549,29.7468435 L190.595549,54.4235165 L198,58 L198,29.7468435 L190.595549,29.7468435 Z M24,30.455051 L24,2.92853389 L31.6658348,0 L31.6658348,30.455051 L24,30.455051 Z M58.8128921,28.2666259 C58.5600088,24.7730856 55.7032067,22.5477969 51.9595423,22.5477969 C48.528263,22.5477969 45.6112507,24.2633747 44.7201381,28.2666259 L58.8128921,28.2666259 Z M66.9979523,33.6636069 L44.7201381,33.6636069 C45.6112507,37.1571472 48.395092,39.1796859 52.3406381,39.1796859 C55.3199858,39.1676343 58.1562455,37.897256 60.1495609,35.6818921 L64.9720525,40.5734156 C62.1797109,44.3235837 57.0398756,46.5488725 51.8355799,46.5488725 C42.6949466,46.5488725 36.0300197,40.1133289 36.0300197,30.9881562 C36.0300197,21.3986433 43.3289258,15.3586751 51.7711194,15.3586751 C60.213313,15.3586751 67.1955838,21.3943898 67.1955838,30.4727739 C67.1906253,31.3142578 67.1268732,32.3301351 66.9979523,33.662898 L66.9979523,33.6636069 Z M93.0236811,5.90740084 C93.0236811,3.11214325 95.4349269,0.952074803 98.2924373,0.952074803 C101.273202,0.952074803 103.556235,3.11214325 103.556235,5.90740084 C103.556235,8.70194952 101.259743,10.9265294 98.2924373,10.9265294 C95.4349269,10.9265294 93.0236811,8.70194952 93.0236811,5.90740084 Z M102.481658,16.1356475 L102.481658,45.7995478 L94.1620101,45.7995478 L94.1620101,22.6123083 L82.1057812,22.6123083 L82.1057812,45.7995478 L73.7918002,45.7995478 L73.7918002,22.6123083 L68.2057002,22.6123083 L68.2057002,16.1356475 L73.7918002,16.1356475 L73.7918002,13.9748701 C73.7918002,5.07938642 78.3621168,0 86.8043104,0 L88.7707082,0 L87.5487931,7.75058363 C83.4148242,7.75058363 82.0916141,9.97090998 82.0916141,13.0830532 L82.0916141,16.1356475 L102.481658,16.1356475 Z M106.730381,30.8683493 C106.730381,21.4681171 114.345922,15.3721445 122.981497,15.3721445 C127.942118,15.2927458 132.621522,17.6704516 135.483991,21.7254538 L129.200868,26.1065575 C127.715444,24.2165862 125.443745,23.1156389 123.040999,23.1227281 C118.34672,23.1227281 115.172574,26.551757 115.172574,30.8683493 C115.172574,35.1856506 118.34672,38.8117582 123.040999,38.8117582 C125.444453,38.8181385 127.716153,37.7157734 129.200868,35.8243843 L135.483991,40.2097415 C132.620105,44.261908 127.940702,46.637487 122.981497,46.5580884 C114.346631,46.5580884 106.730381,40.2699994 106.730381,30.8683493 Z M139.163903,0 L147.477884,0 L147.477884,45.7995478 L139.163903,45.7995478 L139.163903,0 Z M153.568334,45.7995478 L153.568334,16.1349386 L161.882315,16.1349386 L161.882315,45.7988388 L153.568334,45.7988388 L153.568334,45.7995478 Z M152.429297,5.90740084 C152.429297,3.11214325 154.840542,0.952074803 157.693094,0.952074803 C160.614357,0.952074803 162.961851,3.11214325 162.961851,5.90740084 C162.933516,7.27348286 162.360456,8.57221781 161.37159,9.51436778 C160.382016,10.4572267 159.058097,10.9655198 157.693094,10.9272383 C154.840542,10.9272383 152.429297,8.70194952 152.429297,5.90740084 L152.429297,5.90740084 Z" id="" fill="#FFFFFF"></path>
                <path d="M190.527102,30.5341728 C190.527102,25.9240175 187.146336,22.7075482 183.004489,22.7075482 C178.862642,22.7075482 175.486144,25.9064027 175.486144,30.5341728 C175.486144,35.1626475 178.862642,38.3009069 183.004489,38.3009069 C187.146336,38.3009069 190.527102,35.08021 190.527102,30.5341728 L190.527102,30.5341728 Z M167.004711,30.5341728 C167.004711,21.191263 174.526613,15 182.99951,15 C191.472408,15 199,21.1863309 199,30.5341728 C199,39.8820147 191.477387,46 182.99951,46 C174.522345,46 167.008979,39.8136691 167.008979,30.5341728 L167.004,30.5341728 L167.004711,30.5341728 Z M23.5223914,30.5341728 C23.5223914,25.9240175 20.1373578,22.7075482 15.9955106,22.7075482 C11.8536635,22.7075482 8.47716542,25.9064027 8.47716542,30.5341728 C8.47716542,35.1626475 11.8536635,38.3009069 15.9955106,38.3009069 C20.1373578,38.3009069 23.5231027,35.08021 23.5231027,30.5341728 L23.5223914,30.5341728 Z M0,30.5341728 C0,21.191263 7.52261298,15 15.9955106,15 C24.4684083,15 31.9960003,21.2004228 31.9960003,30.5341728 C31.9960003,39.8686274 24.4733874,46 15.9955106,46 C7.51834523,46 0,39.8136691 0,30.5341728 Z" id="" fill="#FFFFFF"></path>
                <path d="M5.00071136,41.021711 C17.8472346,50.1514425 18.6958919,25.5556174 33,33.668587 C31.5609105,42.064369 23.6733061,44.84002 23.6733061,44.84002 C23.6733061,44.84002 13.2945047,49.1973764 5,41.021711 L5.00071136,41.021711 Z" id="" fill="#FF0000"></path>
            </g>
        </g>
    </g>
</svg>